<?xml version="1.0" encoding="UTF-8" standalone="no"?>
<!DOCTYPE svg PUBLIC "-//W3C//DTD SVG 1.1//EN"
 "http://www.w3.org/Graphics/SVG/1.1/DTD/svg11.dtd">
<!-- Generated by graphviz version 12.1.0 (20240811.2233)
 -->
<!-- Title: src.features_recent.RecentConfig Pages: 1 -->
<svg width="136pt" height="88pt"
 viewBox="0.00 0.00 136.00 88.00" xmlns="http://www.w3.org/2000/svg" xmlns:xlink="http://www.w3.org/1999/xlink">
<g id="graph0" class="graph" transform="scale(1 1) rotate(0) translate(4 84)">
<title>src.features_recent.RecentConfig</title>
<!-- Node1 -->
<g id="Node000001" class="node">
<title>Node1</title>
<g id="a_Node000001"><a xlink:title=" ">
<polygon fill="#999999" stroke="none" points="128,-80 0,-80 0,0 128,0 128,-80"/>
<text text-anchor="start" x="4.75" y="-66.5" font-family="Helvetica,sans-Serif" font-size="10.00">src.features_recent.Recent</text>
<text text-anchor="start" x="49.75" y="-54.5" font-family="Helvetica,sans-Serif" font-size="10.00">Config</text>
<text text-anchor="start" x="11" y="-38.5" font-family="Helvetica,sans-Serif" font-size="10.00">+</text>
<text text-anchor="start" x="28" y="-38.5" font-family="Helvetica,sans-Serif" font-size="10.00">lookback_matches</text>
<text text-anchor="start" x="11" y="-22.5" font-family="Helvetica,sans-Serif" font-size="10.00">+</text>
<text text-anchor="start" x="28" y="-22.5" font-family="Helvetica,sans-Serif" font-size="10.00">min_matches</text>
<text text-anchor="start" x="62.5" y="-6.5" font-family="Helvetica,sans-Serif" font-size="10.00"> </text>
<polygon fill="#666666" stroke="#666666" points="0,-50 0,-50 128,-50 128,-50 0,-50"/>
<polygon fill="#666666" stroke="#666666" points="0,-18 0,-18 26,-18 26,-18 0,-18"/>
<polygon fill="#666666" stroke="#666666" points="26,-18 26,-18 128,-18 128,-18 26,-18"/>
<polygon fill="none" stroke="#666666" points="0,0 0,-80 128,-80 128,0 0,0"/>
</a>
</g>
</g>
</g>
</svg>
