<?xml version="1.0" encoding="UTF-8" standalone="no"?>
<!DOCTYPE svg PUBLIC "-//W3C//DTD SVG 1.1//EN"
 "http://www.w3.org/Graphics/SVG/1.1/DTD/svg11.dtd">
<!-- Generated by graphviz version 12.1.0 (20240811.2233)
 -->
<!-- Title: src.train_outcome.TrainingArtifacts Pages: 1 -->
<svg width="133pt" height="188pt"
 viewBox="0.00 0.00 133.00 188.00" xmlns="http://www.w3.org/2000/svg" xmlns:xlink="http://www.w3.org/1999/xlink">
<g id="graph0" class="graph" transform="scale(1 1) rotate(0) translate(4 184)">
<title>src.train_outcome.TrainingArtifacts</title>
<!-- Node1 -->
<g id="Node000001" class="node">
<title>Node1</title>
<g id="a_Node000001"><a xlink:title=" ">
<polygon fill="#999999" stroke="none" points="125,-80 0,-80 0,0 125,0 125,-80"/>
<text text-anchor="start" x="4.75" y="-66.5" font-family="Helvetica,sans-Serif" font-size="10.00">src.train_outcome.Training</text>
<text text-anchor="start" x="44.12" y="-54.5" font-family="Helvetica,sans-Serif" font-size="10.00">Artifacts</text>
<text text-anchor="start" x="10.5" y="-38.5" font-family="Helvetica,sans-Serif" font-size="10.00">+</text>
<text text-anchor="start" x="27" y="-38.5" font-family="Helvetica,sans-Serif" font-size="10.00">feature_columns</text>
<text text-anchor="start" x="10.5" y="-22.5" font-family="Helvetica,sans-Serif" font-size="10.00">+</text>
<text text-anchor="start" x="27" y="-22.5" font-family="Helvetica,sans-Serif" font-size="10.00">calibration_method</text>
<text text-anchor="start" x="61" y="-6.5" font-family="Helvetica,sans-Serif" font-size="10.00"> </text>
<polygon fill="#666666" stroke="#666666" points="0,-50 0,-50 125,-50 125,-50 0,-50"/>
<polygon fill="#666666" stroke="#666666" points="0,-18 0,-18 25,-18 25,-18 0,-18"/>
<polygon fill="#666666" stroke="#666666" points="25,-18 25,-18 125,-18 125,-18 25,-18"/>
<polygon fill="none" stroke="#666666" points="0,0 0,-80 125,-80 125,0 0,0"/>
</a>
</g>
</g>
<!-- Node2 -->
<g id="Node000002" class="node">
<title>Node2</title>
<g id="a_Node000002"><a xlink:title=" ">
<polygon fill="white" stroke="none" points="76.5,-180 48.5,-180 48.5,-128 76.5,-128 76.5,-180"/>
<text text-anchor="start" x="53.5" y="-166.5" font-family="Helvetica,sans-Serif" font-size="10.00">Dict</text>
<text text-anchor="start" x="61" y="-150.5" font-family="Helvetica,sans-Serif" font-size="10.00"> </text>
<text text-anchor="start" x="61" y="-134.5" font-family="Helvetica,sans-Serif" font-size="10.00"> </text>
<polygon fill="#666666" stroke="#666666" points="48.5,-162 48.5,-162 76.5,-162 76.5,-162 48.5,-162"/>
<polygon fill="#666666" stroke="#666666" points="48.5,-146 48.5,-146 76.5,-146 76.5,-146 48.5,-146"/>
<polygon fill="none" stroke="#666666" points="48.5,-128 48.5,-180 76.5,-180 76.5,-128 48.5,-128"/>
</a>
</g>
</g>
<!-- Node2&#45;&gt;Node1 -->
<g id="edge1_Node000001_Node000002" class="edge">
<title>Node2&#45;&gt;Node1</title>
<g id="a_edge1_Node000001_Node000002"><a xlink:title=" ">
<path fill="none" stroke="#63b8ff" d="M62.5,-128.14C62.5,-117.62 62.5,-104.95 62.5,-92.56"/>
<polygon fill="none" stroke="#63b8ff" points="62.5,-92.77 58.5,-86.77 62.5,-80.77 66.5,-86.77 62.5,-92.77"/>
</a>
</g>
<text text-anchor="middle" x="83.12" y="-100.5" font-family="Helvetica,sans-Serif" font-size="10.00" fill="grey"> +metrics</text>
</g>
</g>
</svg>
