<?xml version="1.0" encoding="UTF-8" standalone="no"?>
<!DOCTYPE svg PUBLIC "-//W3C//DTD SVG 1.1//EN"
 "http://www.w3.org/Graphics/SVG/1.1/DTD/svg11.dtd">
<!-- Generated by graphviz version 12.1.0 (20240811.2233)
 -->
<!-- Title: src.predict_outcome.PredictRequest Pages: 1 -->
<svg width="140pt" height="264pt"
 viewBox="0.00 0.00 140.00 264.00" xmlns="http://www.w3.org/2000/svg" xmlns:xlink="http://www.w3.org/1999/xlink">
<g id="graph0" class="graph" transform="scale(1 1) rotate(0) translate(4 260)">
<title>src.predict_outcome.PredictRequest</title>
<!-- Node1 -->
<g id="Node000001" class="node">
<title>Node1</title>
<g id="a_Node000001"><a xlink:title=" ">
<polygon fill="#999999" stroke="none" points="132,-144 0,-144 0,0 132,0 132,-144"/>
<text text-anchor="start" x="4.88" y="-130.5" font-family="Helvetica,sans-Serif" font-size="10.00">src.predict_outcome.Predict</text>
<text text-anchor="start" x="47.62" y="-118.5" font-family="Helvetica,sans-Serif" font-size="10.00">Request</text>
<text text-anchor="start" x="17" y="-102.5" font-family="Helvetica,sans-Serif" font-size="10.00">+</text>
<text text-anchor="start" x="40" y="-102.5" font-family="Helvetica,sans-Serif" font-size="10.00">surface</text>
<text text-anchor="start" x="17" y="-86.5" font-family="Helvetica,sans-Serif" font-size="10.00">+</text>
<text text-anchor="start" x="40" y="-86.5" font-family="Helvetica,sans-Serif" font-size="10.00">round</text>
<text text-anchor="start" x="17" y="-70.5" font-family="Helvetica,sans-Serif" font-size="10.00">+</text>
<text text-anchor="start" x="40" y="-70.5" font-family="Helvetica,sans-Serif" font-size="10.00">tourney_name</text>
<text text-anchor="start" x="17" y="-54.5" font-family="Helvetica,sans-Serif" font-size="10.00">+</text>
<text text-anchor="start" x="40" y="-54.5" font-family="Helvetica,sans-Serif" font-size="10.00">tourney_level</text>
<text text-anchor="start" x="17" y="-38.5" font-family="Helvetica,sans-Serif" font-size="10.00">+</text>
<text text-anchor="start" x="40" y="-38.5" font-family="Helvetica,sans-Serif" font-size="10.00">data_root</text>
<text text-anchor="start" x="17" y="-22.5" font-family="Helvetica,sans-Serif" font-size="10.00">+</text>
<text text-anchor="start" x="40" y="-22.5" font-family="Helvetica,sans-Serif" font-size="10.00">model_path</text>
<text text-anchor="start" x="64.5" y="-6.5" font-family="Helvetica,sans-Serif" font-size="10.00"> </text>
<polygon fill="#666666" stroke="#666666" points="0,-114 0,-114 132,-114 132,-114 0,-114"/>
<polygon fill="#666666" stroke="#666666" points="0,-18 0,-18 38,-18 38,-18 0,-18"/>
<polygon fill="#666666" stroke="#666666" points="38,-18 38,-18 132,-18 132,-18 38,-18"/>
<polygon fill="none" stroke="#666666" points="0,0 0,-144 132,-144 132,0 0,0"/>
</a>
</g>
</g>
<!-- Node2 -->
<g id="Node000002" class="node">
<title>Node2</title>
<g id="a_Node000002"><a xlink:title=" ">
<polygon fill="white" stroke="none" points="89,-256 43,-256 43,-204 89,-204 89,-256"/>
<text text-anchor="start" x="48" y="-242.5" font-family="Helvetica,sans-Serif" font-size="10.00">Optional</text>
<text text-anchor="start" x="64.5" y="-226.5" font-family="Helvetica,sans-Serif" font-size="10.00"> </text>
<text text-anchor="start" x="64.5" y="-210.5" font-family="Helvetica,sans-Serif" font-size="10.00"> </text>
<polygon fill="#666666" stroke="#666666" points="43,-238 43,-238 89,-238 89,-238 43,-238"/>
<polygon fill="#666666" stroke="#666666" points="43,-222 43,-222 89,-222 89,-222 43,-222"/>
<polygon fill="none" stroke="#666666" points="43,-204 43,-256 89,-256 89,-204 43,-204"/>
</a>
</g>
</g>
<!-- Node2&#45;&gt;Node1 -->
<g id="edge1_Node000001_Node000002" class="edge">
<title>Node2&#45;&gt;Node1</title>
<g id="a_edge1_Node000001_Node000002"><a xlink:title=" ">
<path fill="none" stroke="#63b8ff" d="M66,-204.28C66,-191.14 66,-174.14 66,-156.75"/>
<polygon fill="none" stroke="#63b8ff" points="66,-156.65 62,-150.65 66,-144.65 70,-150.65 66,-156.65"/>
</a>
</g>
<text text-anchor="middle" x="86.62" y="-176.5" font-family="Helvetica,sans-Serif" font-size="10.00" fill="grey"> +best_of</text>
<text text-anchor="middle" x="86.62" y="-164.5" font-family="Helvetica,sans-Serif" font-size="10.00" fill="grey">+date</text>
</g>
</g>
</svg>
