<?xml version="1.0" encoding="UTF-8" standalone="no"?>
<!DOCTYPE svg PUBLIC "-//W3C//DTD SVG 1.1//EN"
 "http://www.w3.org/Graphics/SVG/1.1/DTD/svg11.dtd">
<!-- Generated by graphviz version 12.1.0 (20240811.2233)
 -->
<!-- Title: src.build_dataset.PlayerLookup Pages: 1 -->
<svg width="123pt" height="136pt"
 viewBox="0.00 0.00 123.00 136.00" xmlns="http://www.w3.org/2000/svg" xmlns:xlink="http://www.w3.org/1999/xlink">
<g id="graph0" class="graph" transform="scale(1 1) rotate(0) translate(4 132)">
<title>src.build_dataset.PlayerLookup</title>
<!-- Node1 -->
<g id="Node000001" class="node">
<title>Node1</title>
<g id="a_Node000001"><a xlink:title=" ">
<polygon fill="#999999" stroke="none" points="115,-128 0,-128 0,0 115,0 115,-128"/>
<text text-anchor="start" x="5" y="-114.5" font-family="Helvetica,sans-Serif" font-size="10.00">src.build_dataset.Player</text>
<text text-anchor="start" x="41.75" y="-102.5" font-family="Helvetica,sans-Serif" font-size="10.00">Lookup</text>
<text text-anchor="start" x="5" y="-86.5" font-family="Helvetica,sans-Serif" font-size="10.00">+</text>
<text text-anchor="start" x="16" y="-86.5" font-family="Helvetica,sans-Serif" font-size="10.00">dob_by_id</text>
<text text-anchor="start" x="5" y="-70.5" font-family="Helvetica,sans-Serif" font-size="10.00">+</text>
<text text-anchor="start" x="16" y="-70.5" font-family="Helvetica,sans-Serif" font-size="10.00">dob_by_name</text>
<text text-anchor="start" x="5" y="-54.5" font-family="Helvetica,sans-Serif" font-size="10.00">+</text>
<text text-anchor="start" x="16" y="-54.5" font-family="Helvetica,sans-Serif" font-size="10.00">name_by_id</text>
<text text-anchor="start" x="5" y="-38.5" font-family="Helvetica,sans-Serif" font-size="10.00">+</text>
<text text-anchor="start" x="16" y="-38.5" font-family="Helvetica,sans-Serif" font-size="10.00">name_by_key</text>
<text text-anchor="start" x="5.38" y="-22.5" font-family="Helvetica,sans-Serif" font-size="10.00">#</text>
<text text-anchor="start" x="16" y="-22.5" font-family="Helvetica,sans-Serif" font-size="10.00">_RANKING_CACHE</text>
<text text-anchor="start" x="56" y="-6.5" font-family="Helvetica,sans-Serif" font-size="10.00"> </text>
<polygon fill="#666666" stroke="#666666" points="0,-98 0,-98 115,-98 115,-98 0,-98"/>
<polygon fill="#666666" stroke="#666666" points="0,-18 0,-18 14,-18 14,-18 0,-18"/>
<polygon fill="#666666" stroke="#666666" points="14,-18 14,-18 115,-18 115,-18 14,-18"/>
<polygon fill="none" stroke="#666666" points="0,0 0,-128 115,-128 115,0 0,0"/>
</a>
</g>
</g>
</g>
</svg>
