<?xml version="1.0" encoding="UTF-8" standalone="no"?>
<!DOCTYPE svg PUBLIC "-//W3C//DTD SVG 1.1//EN"
 "http://www.w3.org/Graphics/SVG/1.1/DTD/svg11.dtd">
<!-- Generated by graphviz version 12.1.0 (20240811.2233)
 -->
<!-- Title: src.predict_outcome.PredictResult Pages: 1 -->
<svg width="140pt" height="172pt"
 viewBox="0.00 0.00 140.00 172.00" xmlns="http://www.w3.org/2000/svg" xmlns:xlink="http://www.w3.org/1999/xlink">
<g id="graph0" class="graph" transform="scale(1 1) rotate(0) translate(4 168)">
<title>src.predict_outcome.PredictResult</title>
<!-- Node1 -->
<g id="Node000001" class="node">
<title>Node1</title>
<g id="a_Node000001"><a xlink:title=" ">
<polygon fill="#999999" stroke="none" points="132,-64 0,-64 0,0 132,0 132,-64"/>
<text text-anchor="start" x="4.88" y="-50.5" font-family="Helvetica,sans-Serif" font-size="10.00">src.predict_outcome.Predict</text>
<text text-anchor="start" x="51.75" y="-38.5" font-family="Helvetica,sans-Serif" font-size="10.00">Result</text>
<text text-anchor="start" x="64.5" y="-22.5" font-family="Helvetica,sans-Serif" font-size="10.00"> </text>
<text text-anchor="start" x="64.5" y="-6.5" font-family="Helvetica,sans-Serif" font-size="10.00"> </text>
<polygon fill="#666666" stroke="#666666" points="0,-34 0,-34 132,-34 132,-34 0,-34"/>
<polygon fill="#666666" stroke="#666666" points="0,-18 0,-18 132,-18 132,-18 0,-18"/>
<polygon fill="none" stroke="#666666" points="0,0 0,-64 132,-64 132,0 0,0"/>
</a>
</g>
</g>
<!-- Node2 -->
<g id="Node000002" class="node">
<title>Node2</title>
<g id="a_Node000002"><a xlink:title=" ">
<polygon fill="white" stroke="none" points="80,-164 52,-164 52,-112 80,-112 80,-164"/>
<text text-anchor="start" x="57" y="-150.5" font-family="Helvetica,sans-Serif" font-size="10.00">Dict</text>
<text text-anchor="start" x="64.5" y="-134.5" font-family="Helvetica,sans-Serif" font-size="10.00"> </text>
<text text-anchor="start" x="64.5" y="-118.5" font-family="Helvetica,sans-Serif" font-size="10.00"> </text>
<polygon fill="#666666" stroke="#666666" points="52,-146 52,-146 80,-146 80,-146 52,-146"/>
<polygon fill="#666666" stroke="#666666" points="52,-130 52,-130 80,-130 80,-130 52,-130"/>
<polygon fill="none" stroke="#666666" points="52,-112 52,-164 80,-164 80,-112 52,-112"/>
</a>
</g>
</g>
<!-- Node2&#45;&gt;Node1 -->
<g id="edge1_Node000001_Node000002" class="edge">
<title>Node2&#45;&gt;Node1</title>
<g id="a_edge1_Node000001_Node000002"><a xlink:title=" ">
<path fill="none" stroke="#63b8ff" d="M66,-112.09C66,-101.41 66,-88.62 66,-76.46"/>
<polygon fill="none" stroke="#63b8ff" points="66,-76.55 62,-70.55 66,-64.55 70,-70.55 66,-76.55"/>
</a>
</g>
<text text-anchor="middle" x="81.38" y="-84.5" font-family="Helvetica,sans-Serif" font-size="10.00" fill="grey"> +meta</text>
</g>
</g>
</svg>
