<?xml version="1.0" encoding="UTF-8" standalone="no"?>
<!DOCTYPE svg PUBLIC "-//W3C//DTD SVG 1.1//EN"
 "http://www.w3.org/Graphics/SVG/1.1/DTD/svg11.dtd">
<!-- Generated by graphviz version 12.1.0 (20240811.2233)
 -->
<!-- Title: src.tiebreaker_cli.resolve_player_id Pages: 1 -->
<svg width="432pt" height="40pt"
 viewBox="0.00 0.00 431.75 40.00" xmlns="http://www.w3.org/2000/svg" xmlns:xlink="http://www.w3.org/1999/xlink">
<g id="graph0" class="graph" transform="scale(1 1) rotate(0) translate(4 36)">
<title>src.tiebreaker_cli.resolve_player_id</title>
<!-- Node1 -->
<g id="Node000001" class="node">
<title>Node1</title>
<g id="a_Node000001"><a xlink:title=" ">
<polygon fill="#999999" stroke="#666666" points="124.75,-32 0,-32 0,0 124.75,0 124.75,-32"/>
<text text-anchor="start" x="8" y="-18.5" font-family="Helvetica,sans-Serif" font-size="10.00">src.tiebreaker_cli.resolve</text>
<text text-anchor="middle" x="62.38" y="-6.5" font-family="Helvetica,sans-Serif" font-size="10.00">_player_id</text>
</a>
</g>
</g>
<!-- Node2 -->
<g id="Node000002" class="node">
<title>Node2</title>
<g id="a_Node000002"><a xlink:href="namespacesrc_1_1tiebreaker__cli.html#a95f75c57b6434303754582d2cbd2e5eb" target="_top" xlink:title=" ">
<polygon fill="white" stroke="#666666" points="272.75,-32 160.75,-32 160.75,0 272.75,0 272.75,-32"/>
<text text-anchor="start" x="168.75" y="-18.5" font-family="Helvetica,sans-Serif" font-size="10.00">src.tiebreaker_cli.best</text>
<text text-anchor="middle" x="216.75" y="-6.5" font-family="Helvetica,sans-Serif" font-size="10.00">_name_match</text>
</a>
</g>
</g>
<!-- Node1&#45;&gt;Node2 -->
<g id="edge1_Node000001_Node000002" class="edge">
<title>Node1&#45;&gt;Node2</title>
<g id="a_edge1_Node000001_Node000002"><a xlink:title=" ">
<path fill="none" stroke="#63b8ff" d="M124.91,-16C132.88,-16 141.08,-16 149.13,-16"/>
<polygon fill="#63b8ff" stroke="#63b8ff" points="148.86,-19.5 158.86,-16 148.86,-12.5 148.86,-19.5"/>
</a>
</g>
</g>
<!-- Node3 -->
<g id="Node000003" class="node">
<title>Node3</title>
<g id="a_Node000003"><a xlink:href="namespacesrc_1_1tiebreaker__cli.html#ae1dde96bb989e0bcc3883f4e60283e45" target="_top" xlink:title=" ">
<polygon fill="white" stroke="#666666" points="423.75,-26 308.75,-26 308.75,-6 423.75,-6 423.75,-26"/>
<text text-anchor="middle" x="366.25" y="-12.5" font-family="Helvetica,sans-Serif" font-size="10.00">src.tiebreaker_cli.norm</text>
</a>
</g>
</g>
<!-- Node2&#45;&gt;Node3 -->
<g id="edge2_Node000002_Node000003" class="edge">
<title>Node2&#45;&gt;Node3</title>
<g id="a_edge2_Node000002_Node000003"><a xlink:title=" ">
<path fill="none" stroke="#63b8ff" d="M273.09,-16C280.98,-16 289.17,-16 297.27,-16"/>
<polygon fill="#63b8ff" stroke="#63b8ff" points="297.1,-19.5 307.1,-16 297.1,-12.5 297.1,-19.5"/>
</a>
</g>
</g>
</g>
</svg>
