<?xml version="1.0" encoding="UTF-8" standalone="no"?>
<!DOCTYPE svg PUBLIC "-//W3C//DTD SVG 1.1//EN"
 "http://www.w3.org/Graphics/SVG/1.1/DTD/svg11.dtd">
<!-- Generated by graphviz version 12.1.0 (20240811.2233)
 -->
<!-- Title: src.build_dataset.get_rank_on_or_before Pages: 1 -->
<svg width="414pt" height="190pt"
 viewBox="0.00 0.00 413.75 190.00" xmlns="http://www.w3.org/2000/svg" xmlns:xlink="http://www.w3.org/1999/xlink">
<g id="graph0" class="graph" transform="scale(1 1) rotate(0) translate(4 186)">
<title>src.build_dataset.get_rank_on_or_before</title>
<!-- Node1 -->
<g id="Node000001" class="node">
<title>Node1</title>
<g id="a_Node000001"><a xlink:title=" ">
<polygon fill="#999999" stroke="#666666" points="106.75,-107 0,-107 0,-75 106.75,-75 106.75,-107"/>
<text text-anchor="start" x="8" y="-93.5" font-family="Helvetica,sans-Serif" font-size="10.00">src.build_dataset.get</text>
<text text-anchor="middle" x="53.38" y="-81.5" font-family="Helvetica,sans-Serif" font-size="10.00">_rank_on_or_before</text>
</a>
</g>
</g>
<!-- Node2 -->
<g id="Node000002" class="node">
<title>Node2</title>
<g id="a_Node000002"><a xlink:href="namespacesrc_1_1build__dataset.html#a749851cd9c0893fd71364393d08f1ef4" target="_top" xlink:title=" ">
<polygon fill="white" stroke="#666666" points="252.88,-182 149.88,-182 149.88,-150 252.88,-150 252.88,-182"/>
<text text-anchor="start" x="157.88" y="-168.5" font-family="Helvetica,sans-Serif" font-size="10.00">src.build_dataset.</text>
<text text-anchor="middle" x="201.38" y="-156.5" font-family="Helvetica,sans-Serif" font-size="10.00">_get_ranking_cache</text>
</a>
</g>
</g>
<!-- Node1&#45;&gt;Node2 -->
<g id="edge1_Node000001_Node000002" class="edge">
<title>Node1&#45;&gt;Node2</title>
<g id="a_edge1_Node000001_Node000002"><a xlink:title=" ">
<path fill="none" stroke="#63b8ff" d="M81.44,-107.3C98.73,-117.46 121.76,-130.55 142.75,-141 145.31,-142.28 147.96,-143.55 150.63,-144.82"/>
<polygon fill="#63b8ff" stroke="#63b8ff" points="149.14,-147.98 159.69,-148.97 152.06,-141.62 149.14,-147.98"/>
</a>
</g>
</g>
<!-- Node4 -->
<g id="Node000004" class="node">
<title>Node4</title>
<g id="a_Node000004"><a xlink:href="namespacesrc_1_1build__dataset.html#a6e651ba229ac9338b5c881e68c0b3e67" target="_top" xlink:title=" ">
<polygon fill="white" stroke="#666666" points="248,-132 154.75,-132 154.75,-100 248,-100 248,-132"/>
<text text-anchor="start" x="162.75" y="-118.5" font-family="Helvetica,sans-Serif" font-size="10.00">src.build_dataset.</text>
<text text-anchor="middle" x="201.38" y="-106.5" font-family="Helvetica,sans-Serif" font-size="10.00">_name_variants</text>
</a>
</g>
</g>
<!-- Node1&#45;&gt;Node4 -->
<g id="edge3_Node000001_Node000004" class="edge">
<title>Node1&#45;&gt;Node4</title>
<g id="a_edge3_Node000001_Node000004"><a xlink:title=" ">
<path fill="none" stroke="#63b8ff" d="M107.08,-100.03C118.84,-102.04 131.37,-104.18 143.3,-106.23"/>
<polygon fill="#63b8ff" stroke="#63b8ff" points="142.57,-109.65 153.01,-107.89 143.75,-102.75 142.57,-109.65"/>
</a>
</g>
</g>
<!-- Node5 -->
<g id="Node000005" class="node">
<title>Node5</title>
<g id="a_Node000005"><a xlink:href="namespacesrc_1_1build__dataset.html#ac876c72ca7e8ecae480d88d6206696f7" target="_top" xlink:title=" ">
<polygon fill="white" stroke="#666666" points="255.88,-82 146.88,-82 146.88,-50 255.88,-50 255.88,-82"/>
<text text-anchor="start" x="154.88" y="-68.5" font-family="Helvetica,sans-Serif" font-size="10.00">src.build_dataset.</text>
<text text-anchor="middle" x="201.38" y="-56.5" font-family="Helvetica,sans-Serif" font-size="10.00">_select_latest_before</text>
</a>
</g>
</g>
<!-- Node1&#45;&gt;Node5 -->
<g id="edge4_Node000001_Node000005" class="edge">
<title>Node1&#45;&gt;Node5</title>
<g id="a_edge4_Node000001_Node000005"><a xlink:title=" ">
<path fill="none" stroke="#63b8ff" d="M107.08,-81.97C116.36,-80.39 126.11,-78.72 135.67,-77.08"/>
<polygon fill="#63b8ff" stroke="#63b8ff" points="136,-80.57 145.27,-75.44 134.82,-73.67 136,-80.57"/>
</a>
</g>
</g>
<!-- Node6 -->
<g id="Node000006" class="node">
<title>Node6</title>
<g id="a_Node000006"><a xlink:href="namespacesrc_1_1build__dataset.html#ac65be995a734653a1ecd7764987b657c" target="_top" xlink:title=" ">
<polygon fill="white" stroke="#666666" points="260,-32 142.75,-32 142.75,0 260,0 260,-32"/>
<text text-anchor="start" x="150.75" y="-18.5" font-family="Helvetica,sans-Serif" font-size="10.00">src.build_dataset.parse</text>
<text text-anchor="middle" x="201.38" y="-6.5" font-family="Helvetica,sans-Serif" font-size="10.00">_date_like</text>
</a>
</g>
</g>
<!-- Node1&#45;&gt;Node6 -->
<g id="edge5_Node000001_Node000006" class="edge">
<title>Node1&#45;&gt;Node6</title>
<g id="a_edge5_Node000001_Node000006"><a xlink:title=" ">
<path fill="none" stroke="#63b8ff" d="M81.44,-74.7C98.73,-64.54 121.76,-51.45 142.75,-41 145.31,-39.72 147.96,-38.45 150.63,-37.18"/>
<polygon fill="#63b8ff" stroke="#63b8ff" points="152.06,-40.38 159.69,-33.03 149.14,-34.02 152.06,-40.38"/>
</a>
</g>
</g>
<!-- Node3 -->
<g id="Node000003" class="node">
<title>Node3</title>
<g id="a_Node000003"><a xlink:href="namespacesrc_1_1build__dataset.html#a3ec095ae8e54a7d44ea5b611bb91ced6" target="_top" xlink:title=" ">
<polygon fill="white" stroke="#666666" points="405.75,-182 296,-182 296,-150 405.75,-150 405.75,-182"/>
<text text-anchor="start" x="304" y="-168.5" font-family="Helvetica,sans-Serif" font-size="10.00">src.build_dataset.</text>
<text text-anchor="middle" x="350.88" y="-156.5" font-family="Helvetica,sans-Serif" font-size="10.00">_build_ranking_cache</text>
</a>
</g>
</g>
<!-- Node2&#45;&gt;Node3 -->
<g id="edge2_Node000002_Node000003" class="edge">
<title>Node2&#45;&gt;Node3</title>
<g id="a_edge2_Node000002_Node000003"><a xlink:title=" ">
<path fill="none" stroke="#63b8ff" d="M253.14,-166C263.23,-166 273.97,-166 284.48,-166"/>
<polygon fill="#63b8ff" stroke="#63b8ff" points="284.23,-169.5 294.23,-166 284.23,-162.5 284.23,-169.5"/>
</a>
</g>
</g>
</g>
</svg>
