<?xml version="1.0" encoding="UTF-8" standalone="no"?>
<!DOCTYPE svg PUBLIC "-//W3C//DTD SVG 1.1//EN"
 "http://www.w3.org/Graphics/SVG/1.1/DTD/svg11.dtd">
<!-- Generated by graphviz version 12.1.0 (20240811.2233)
 -->
<!-- Title: src.predict_outcome.predict_outcome Pages: 1 -->
<svg width="651pt" height="328pt"
 viewBox="0.00 0.00 651.00 328.00" xmlns="http://www.w3.org/2000/svg" xmlns:xlink="http://www.w3.org/1999/xlink">
<g id="graph0" class="graph" transform="scale(1 1) rotate(0) translate(4 324)">
<title>src.predict_outcome.predict_outcome</title>
<!-- Node1 -->
<g id="Node000001" class="node">
<title>Node1</title>
<g id="a_Node000001"><a xlink:title=" ">
<polygon fill="#999999" stroke="#666666" points="136.75,-132 0,-132 0,-100 136.75,-100 136.75,-132"/>
<text text-anchor="start" x="8" y="-118.5" font-family="Helvetica,sans-Serif" font-size="10.00">src.predict_outcome.predict</text>
<text text-anchor="middle" x="68.38" y="-106.5" font-family="Helvetica,sans-Serif" font-size="10.00">_outcome</text>
</a>
</g>
</g>
<!-- Node2 -->
<g id="Node000002" class="node">
<title>Node2</title>
<g id="a_Node000002"><a xlink:href="namespacesrc_1_1predict__outcome.html#a4936cee5ea5beb99effbde74d9bd6159" target="_top" xlink:title=" ">
<polygon fill="white" stroke="#666666" points="307.62,-270 183.62,-270 183.62,-238 307.62,-238 307.62,-270"/>
<text text-anchor="start" x="191.62" y="-256.5" font-family="Helvetica,sans-Serif" font-size="10.00">src.predict_outcome.</text>
<text text-anchor="middle" x="245.62" y="-244.5" font-family="Helvetica,sans-Serif" font-size="10.00">_build_base_feature_row</text>
</a>
</g>
</g>
<!-- Node1&#45;&gt;Node2 -->
<g id="edge1_Node000001_Node000002" class="edge">
<title>Node1&#45;&gt;Node2</title>
<g id="a_edge1_Node000001_Node000002"><a xlink:title=" ">
<path fill="none" stroke="#63b8ff" d="M87.6,-132.46C107.91,-150.57 141.94,-180.26 172.75,-204 184.82,-213.3 198.45,-222.98 210.57,-231.32"/>
<polygon fill="#63b8ff" stroke="#63b8ff" points="208.43,-234.09 218.66,-236.83 212.37,-228.31 208.43,-234.09"/>
</a>
</g>
</g>
<!-- Node5 -->
<g id="Node000005" class="node">
<title>Node5</title>
<g id="a_Node000005"><a xlink:href="namespacesrc_1_1predict__outcome.html#a00a6b107530e73aebc1fe547b57cf708" target="_top" xlink:title=" ">
<polygon fill="white" stroke="#666666" points="318.5,-195 172.75,-195 172.75,-163 318.5,-163 318.5,-195"/>
<text text-anchor="start" x="180.75" y="-181.5" font-family="Helvetica,sans-Serif" font-size="10.00">src.predict_outcome.</text>
<text text-anchor="middle" x="245.62" y="-169.5" font-family="Helvetica,sans-Serif" font-size="10.00">_load_matches_for_prediction</text>
</a>
</g>
</g>
<!-- Node1&#45;&gt;Node5 -->
<g id="edge4_Node000001_Node000005" class="edge">
<title>Node1&#45;&gt;Node5</title>
<g id="a_edge4_Node000001_Node000005"><a xlink:title=" ">
<path fill="none" stroke="#63b8ff" d="M114.96,-132.39C137.39,-140.45 164.63,-150.24 188.34,-158.77"/>
<polygon fill="#63b8ff" stroke="#63b8ff" points="186.94,-161.98 197.54,-162.07 189.31,-155.4 186.94,-161.98"/>
</a>
</g>
</g>
<!-- Node7 -->
<g id="Node000007" class="node">
<title>Node7</title>
<g id="a_Node000007"><a xlink:href="namespacesrc_1_1predict__outcome.html#aea83edb36dc13faab680b734ad9fc61a" target="_top" xlink:title=" ">
<polygon fill="white" stroke="#666666" points="299.38,-132 191.88,-132 191.88,-100 299.38,-100 299.38,-132"/>
<text text-anchor="start" x="199.88" y="-118.5" font-family="Helvetica,sans-Serif" font-size="10.00">src.predict_outcome.</text>
<text text-anchor="middle" x="245.62" y="-106.5" font-family="Helvetica,sans-Serif" font-size="10.00">_resolve_best_of</text>
</a>
</g>
</g>
<!-- Node1&#45;&gt;Node7 -->
<g id="edge6_Node000001_Node000007" class="edge">
<title>Node1&#45;&gt;Node7</title>
<g id="a_edge6_Node000001_Node000007"><a xlink:title=" ">
<path fill="none" stroke="#63b8ff" d="M137.13,-116C151.2,-116 166,-116 179.95,-116"/>
<polygon fill="#63b8ff" stroke="#63b8ff" points="179.93,-119.5 189.93,-116 179.93,-112.5 179.93,-119.5"/>
</a>
</g>
</g>
<!-- Node11 -->
<g id="Node000011" class="node">
<title>Node11</title>
<g id="a_Node000011"><a xlink:href="namespacesrc_1_1predict__outcome.html#aeb6910e9a4dbfd0570fe1fd2d956a872" target="_top" xlink:title=" ">
<polygon fill="white" stroke="#666666" points="299.38,-82 191.88,-82 191.88,-50 299.38,-50 299.38,-82"/>
<text text-anchor="start" x="199.88" y="-68.5" font-family="Helvetica,sans-Serif" font-size="10.00">src.predict_outcome.</text>
<text text-anchor="middle" x="245.62" y="-56.5" font-family="Helvetica,sans-Serif" font-size="10.00">_resolve_player</text>
</a>
</g>
</g>
<!-- Node1&#45;&gt;Node11 -->
<g id="edge11_Node000001_Node000011" class="edge">
<title>Node1&#45;&gt;Node11</title>
<g id="a_edge11_Node000001_Node000011"><a xlink:title=" ">
<path fill="none" stroke="#63b8ff" d="M126.76,-99.63C143.95,-94.72 162.92,-89.31 180.52,-84.29"/>
<polygon fill="#63b8ff" stroke="#63b8ff" points="181.45,-87.66 190.11,-81.55 179.53,-80.93 181.45,-87.66"/>
</a>
</g>
</g>
<!-- Node13 -->
<g id="Node000013" class="node">
<title>Node13</title>
<g id="a_Node000013"><a xlink:href="namespacesrc_1_1predict__outcome.html#a67ac2a7f28c5937e7099c6b2b9ac5ade" target="_top" xlink:title=" ">
<polygon fill="white" stroke="#666666" points="299.38,-32 191.88,-32 191.88,0 299.38,0 299.38,-32"/>
<text text-anchor="start" x="199.88" y="-18.5" font-family="Helvetica,sans-Serif" font-size="10.00">src.predict_outcome.</text>
<text text-anchor="middle" x="245.62" y="-6.5" font-family="Helvetica,sans-Serif" font-size="10.00">_resolve_target_date</text>
</a>
</g>
</g>
<!-- Node1&#45;&gt;Node13 -->
<g id="edge13_Node000001_Node000013" class="edge">
<title>Node1&#45;&gt;Node13</title>
<g id="a_edge13_Node000001_Node000013"><a xlink:title=" ">
<path fill="none" stroke="#63b8ff" d="M88.44,-99.51C108.38,-82.93 141.11,-57.52 172.75,-41 175.46,-39.59 178.26,-38.23 181.12,-36.92"/>
<polygon fill="#63b8ff" stroke="#63b8ff" points="182.45,-40.16 190.27,-33.01 179.7,-33.72 182.45,-40.16"/>
</a>
</g>
</g>
<!-- Node3 -->
<g id="Node000003" class="node">
<title>Node3</title>
<g id="a_Node000003"><a xlink:href="namespacesrc_1_1predict__outcome.html#afb1f1056bbc9e82ac2dd94961643e143" target="_top" xlink:title=" ">
<polygon fill="white" stroke="#666666" points="480.75,-320 373.25,-320 373.25,-288 480.75,-288 480.75,-320"/>
<text text-anchor="start" x="381.25" y="-306.5" font-family="Helvetica,sans-Serif" font-size="10.00">src.predict_outcome.</text>
<text text-anchor="middle" x="427" y="-294.5" font-family="Helvetica,sans-Serif" font-size="10.00">_clean_round</text>
</a>
</g>
</g>
<!-- Node2&#45;&gt;Node3 -->
<g id="edge2_Node000002_Node000003" class="edge">
<title>Node2&#45;&gt;Node3</title>
<g id="a_edge2_Node000002_Node000003"><a xlink:title=" ">
<path fill="none" stroke="#63b8ff" d="M305.36,-270.37C323.47,-275.42 343.49,-281 361.94,-286.14"/>
<polygon fill="#63b8ff" stroke="#63b8ff" points="360.86,-289.48 371.43,-288.79 362.74,-282.73 360.86,-289.48"/>
</a>
</g>
</g>
<!-- Node4 -->
<g id="Node000004" class="node">
<title>Node4</title>
<g id="a_Node000004"><a xlink:href="namespacesrc_1_1predict__outcome.html#adf96d8139a3fca1ec966a0c408f3665a" target="_top" xlink:title=" ">
<polygon fill="white" stroke="#666666" points="480.75,-270 373.25,-270 373.25,-238 480.75,-238 480.75,-270"/>
<text text-anchor="start" x="381.25" y="-256.5" font-family="Helvetica,sans-Serif" font-size="10.00">src.predict_outcome.</text>
<text text-anchor="middle" x="427" y="-244.5" font-family="Helvetica,sans-Serif" font-size="10.00">_clean_surface</text>
</a>
</g>
</g>
<!-- Node2&#45;&gt;Node4 -->
<g id="edge3_Node000002_Node000004" class="edge">
<title>Node2&#45;&gt;Node4</title>
<g id="a_edge3_Node000002_Node000004"><a xlink:title=" ">
<path fill="none" stroke="#63b8ff" d="M308.1,-254C325.41,-254 344.27,-254 361.74,-254"/>
<polygon fill="#63b8ff" stroke="#63b8ff" points="361.46,-257.5 371.46,-254 361.46,-250.5 361.46,-257.5"/>
</a>
</g>
</g>
<!-- Node6 -->
<g id="Node000006" class="node">
<title>Node6</title>
<g id="a_Node000006"><a xlink:href="namespacesrc_1_1predict__outcome.html#a79696e356117756247de7f9484bbe55e" target="_top" xlink:title=" ">
<polygon fill="white" stroke="#666666" points="495,-220 359,-220 359,-188 495,-188 495,-220"/>
<text text-anchor="start" x="367" y="-206.5" font-family="Helvetica,sans-Serif" font-size="10.00">src.predict_outcome.</text>
<text text-anchor="middle" x="427" y="-194.5" font-family="Helvetica,sans-Serif" font-size="10.00">_filter_matches_for_players</text>
</a>
</g>
</g>
<!-- Node5&#45;&gt;Node6 -->
<g id="edge5_Node000005_Node000006" class="edge">
<title>Node5&#45;&gt;Node6</title>
<g id="a_edge5_Node000005_Node000006"><a xlink:title=" ">
<path fill="none" stroke="#63b8ff" d="M318.81,-189.06C328.25,-190.38 337.97,-191.73 347.51,-193.06"/>
<polygon fill="#63b8ff" stroke="#63b8ff" points="346.73,-196.49 357.11,-194.4 347.69,-189.55 346.73,-196.49"/>
</a>
</g>
</g>
<!-- Node8 -->
<g id="Node000008" class="node">
<title>Node8</title>
<g id="a_Node000008"><a xlink:href="namespacesrc_1_1predict__outcome.html#a9d764280f79b43e98849d52863b8905b" target="_top" xlink:title=" ">
<polygon fill="white" stroke="#666666" points="480.75,-170 373.25,-170 373.25,-138 480.75,-138 480.75,-170"/>
<text text-anchor="start" x="381.25" y="-156.5" font-family="Helvetica,sans-Serif" font-size="10.00">src.predict_outcome.</text>
<text text-anchor="middle" x="427" y="-144.5" font-family="Helvetica,sans-Serif" font-size="10.00">_default_best_of</text>
</a>
</g>
</g>
<!-- Node7&#45;&gt;Node8 -->
<g id="edge7_Node000007_Node000008" class="edge">
<title>Node7&#45;&gt;Node8</title>
<g id="a_edge7_Node000007_Node000008"><a xlink:title=" ">
<path fill="none" stroke="#63b8ff" d="M299.47,-127.2C319,-131.33 341.36,-136.07 361.79,-140.4"/>
<polygon fill="#63b8ff" stroke="#63b8ff" points="360.92,-143.79 371.43,-142.44 362.37,-136.94 360.92,-143.79"/>
</a>
</g>
</g>
<!-- Node9 -->
<g id="Node000009" class="node">
<title>Node9</title>
<g id="a_Node000009"><a xlink:href="namespacesrc_1_1predict__outcome.html#a3ce9a1a9e05e00b17b2e9a5ff9c5341a" target="_top" xlink:title=" ">
<polygon fill="white" stroke="#666666" points="499.5,-120 354.5,-120 354.5,-88 499.5,-88 499.5,-120"/>
<text text-anchor="start" x="362.5" y="-106.5" font-family="Helvetica,sans-Serif" font-size="10.00">src.predict_outcome.</text>
<text text-anchor="middle" x="427" y="-94.5" font-family="Helvetica,sans-Serif" font-size="10.00">_infer_best_of_from_matches</text>
</a>
</g>
</g>
<!-- Node7&#45;&gt;Node9 -->
<g id="edge8_Node000007_Node000009" class="edge">
<title>Node7&#45;&gt;Node9</title>
<g id="a_edge8_Node000007_Node000009"><a xlink:title=" ">
<path fill="none" stroke="#63b8ff" d="M299.47,-112.46C313.14,-111.55 328.2,-110.54 343,-109.55"/>
<polygon fill="#63b8ff" stroke="#63b8ff" points="343,-113.06 352.74,-108.9 342.53,-106.08 343,-113.06"/>
</a>
</g>
</g>
<!-- Node10 -->
<g id="Node000010" class="node">
<title>Node10</title>
<g id="a_Node000010"><a xlink:href="namespacesrc_1_1predict__outcome.html#ad79bbc7abab53776a5a2b3dc4ae19169" target="_top" xlink:title=" ">
<polygon fill="white" stroke="#666666" points="643,-98 535.5,-98 535.5,-66 643,-66 643,-98"/>
<text text-anchor="start" x="543.5" y="-84.5" font-family="Helvetica,sans-Serif" font-size="10.00">src.predict_outcome.</text>
<text text-anchor="middle" x="589.25" y="-72.5" font-family="Helvetica,sans-Serif" font-size="10.00">_safe_int</text>
</a>
</g>
</g>
<!-- Node7&#45;&gt;Node10 -->
<g id="edge10_Node000007_Node000010" class="edge">
<title>Node7&#45;&gt;Node10</title>
<g id="a_edge10_Node000007_Node000010"><a xlink:title=" ">
<path fill="none" stroke="#63b8ff" d="M294.11,-99.52C322.28,-89.78 352.83,-79.28 354.5,-79 411.27,-69.54 476.87,-71.48 524.1,-75.09"/>
<polygon fill="#63b8ff" stroke="#63b8ff" points="523.63,-78.57 533.88,-75.89 524.2,-71.59 523.63,-78.57"/>
</a>
</g>
</g>
<!-- Node9&#45;&gt;Node10 -->
<g id="edge9_Node000009_Node000010" class="edge">
<title>Node9&#45;&gt;Node10</title>
<g id="a_edge9_Node000009_Node000010"><a xlink:title=" ">
<path fill="none" stroke="#63b8ff" d="M499.69,-94.16C507.84,-93.04 516.12,-91.9 524.17,-90.8"/>
<polygon fill="#63b8ff" stroke="#63b8ff" points="524.43,-94.29 533.86,-89.47 523.48,-87.36 524.43,-94.29"/>
</a>
</g>
</g>
<!-- Node12 -->
<g id="Node000012" class="node">
<title>Node12</title>
<g id="a_Node000012"><a xlink:href="namespacesrc_1_1predict__outcome.html#a7b76272fb123492a8e90a578a5c59500" target="_top" xlink:title=" ">
<polygon fill="white" stroke="#666666" points="494.25,-32 359.75,-32 359.75,-12 494.25,-12 494.25,-32"/>
<text text-anchor="middle" x="427" y="-18.5" font-family="Helvetica,sans-Serif" font-size="10.00">src.predict_outcome._norm</text>
</a>
</g>
</g>
<!-- Node11&#45;&gt;Node12 -->
<g id="edge12_Node000011_Node000012" class="edge">
<title>Node11&#45;&gt;Node12</title>
<g id="a_edge12_Node000011_Node000012"><a xlink:title=" ">
<path fill="none" stroke="#63b8ff" d="M299.47,-53.04C322.47,-47.39 349.39,-40.79 372.47,-35.13"/>
<polygon fill="#63b8ff" stroke="#63b8ff" points="373.11,-38.58 381.99,-32.8 371.44,-31.78 373.11,-38.58"/>
</a>
</g>
</g>
</g>
</svg>
