<?xml version="1.0" encoding="UTF-8" standalone="no"?>
<!DOCTYPE svg PUBLIC "-//W3C//DTD SVG 1.1//EN"
 "http://www.w3.org/Graphics/SVG/1.1/DTD/svg11.dtd">
<!-- Generated by graphviz version 12.1.0 (20240811.2233)
 -->
<!-- Title: src.build_dataset.run Pages: 1 -->
<svg width="281pt" height="90pt"
 viewBox="0.00 0.00 280.75 90.00" xmlns="http://www.w3.org/2000/svg" xmlns:xlink="http://www.w3.org/1999/xlink">
<g id="graph0" class="graph" transform="scale(1 1) rotate(0) translate(4 86)">
<title>src.build_dataset.run</title>
<!-- Node1 -->
<g id="Node000001" class="node">
<title>Node1</title>
<g id="a_Node000001"><a xlink:title=" ">
<polygon fill="#999999" stroke="#666666" points="106.75,-51 0,-51 0,-31 106.75,-31 106.75,-51"/>
<text text-anchor="middle" x="53.38" y="-37.5" font-family="Helvetica,sans-Serif" font-size="10.00">src.build_dataset.run</text>
</a>
</g>
</g>
<!-- Node2 -->
<g id="Node000002" class="node">
<title>Node2</title>
<g id="a_Node000002"><a xlink:href="namespacesrc_1_1build__dataset.html#a778cda3570b9337c2d5a1d5e284b7dbf" target="_top" xlink:title=" ">
<polygon fill="white" stroke="#666666" points="272.75,-82 142.75,-82 142.75,-50 272.75,-50 272.75,-82"/>
<text text-anchor="start" x="150.75" y="-68.5" font-family="Helvetica,sans-Serif" font-size="10.00">src.build_dataset.describe</text>
<text text-anchor="middle" x="207.75" y="-56.5" font-family="Helvetica,sans-Serif" font-size="10.00">_dataframe</text>
</a>
</g>
</g>
<!-- Node1&#45;&gt;Node2 -->
<g id="edge1_Node000001_Node000002" class="edge">
<title>Node1&#45;&gt;Node2</title>
<g id="a_edge1_Node000001_Node000002"><a xlink:title=" ">
<path fill="none" stroke="#63b8ff" d="M107.24,-49.67C114.95,-50.94 123.02,-52.26 131.07,-53.58"/>
<polygon fill="#63b8ff" stroke="#63b8ff" points="130.49,-57.04 140.93,-55.2 131.63,-50.13 130.49,-57.04"/>
</a>
</g>
</g>
<!-- Node3 -->
<g id="Node000003" class="node">
<title>Node3</title>
<g id="a_Node000003"><a xlink:href="namespacesrc_1_1build__dataset.html#aebdfbd5cb2fe0c6ad47c04d927084c4d" target="_top" xlink:title=" ">
<polygon fill="white" stroke="#666666" points="264.88,-32 150.62,-32 150.62,0 264.88,0 264.88,-32"/>
<text text-anchor="start" x="158.62" y="-18.5" font-family="Helvetica,sans-Serif" font-size="10.00">src.build_dataset.save</text>
<text text-anchor="middle" x="207.75" y="-6.5" font-family="Helvetica,sans-Serif" font-size="10.00">_dataset</text>
</a>
</g>
</g>
<!-- Node1&#45;&gt;Node3 -->
<g id="edge2_Node000001_Node000003" class="edge">
<title>Node1&#45;&gt;Node3</title>
<g id="a_edge2_Node000001_Node000003"><a xlink:title=" ">
<path fill="none" stroke="#63b8ff" d="M107.24,-32.33C117.58,-30.63 128.54,-28.83 139.28,-27.07"/>
<polygon fill="#63b8ff" stroke="#63b8ff" points="139.55,-30.57 148.85,-25.5 138.42,-23.66 139.55,-30.57"/>
</a>
</g>
</g>
</g>
</svg>
