<?xml version="1.0" encoding="UTF-8" standalone="no"?>
<!DOCTYPE svg PUBLIC "-//W3C//DTD SVG 1.1//EN"
 "http://www.w3.org/Graphics/SVG/1.1/DTD/svg11.dtd">
<!-- Generated by graphviz version 12.1.0 (20240811.2233)
 -->
<!-- Title: src.build_dataset.canonicalize_ab Pages: 1 -->
<svg width="658pt" height="278pt"
 viewBox="0.00 0.00 657.75 278.00" xmlns="http://www.w3.org/2000/svg" xmlns:xlink="http://www.w3.org/1999/xlink">
<g id="graph0" class="graph" transform="scale(1 1) rotate(0) translate(4 274)">
<title>src.build_dataset.canonicalize_ab</title>
<!-- Node1 -->
<g id="Node000001" class="node">
<title>Node1</title>
<g id="a_Node000001"><a xlink:title=" ">
<polygon fill="#999999" stroke="#666666" points="163,-142 0,-142 0,-122 163,-122 163,-142"/>
<text text-anchor="middle" x="81.5" y="-128.5" font-family="Helvetica,sans-Serif" font-size="10.00">src.build_dataset.canonicalize_ab</text>
</a>
</g>
</g>
<!-- Node2 -->
<g id="Node000002" class="node">
<title>Node2</title>
<g id="a_Node000002"><a xlink:href="namespacesrc_1_1build__dataset.html#a2a97b2c72820149bfdf1eadc0332234d" target="_top" xlink:title=" ">
<polygon fill="white" stroke="#666666" points="327.5,-270 222.25,-270 222.25,-238 327.5,-238 327.5,-270"/>
<text text-anchor="start" x="230.25" y="-256.5" font-family="Helvetica,sans-Serif" font-size="10.00">src.build_dataset.</text>
<text text-anchor="middle" x="274.88" y="-244.5" font-family="Helvetica,sans-Serif" font-size="10.00">_resolve_player_dob</text>
</a>
</g>
</g>
<!-- Node1&#45;&gt;Node2 -->
<g id="edge1_Node000001_Node000002" class="edge">
<title>Node1&#45;&gt;Node2</title>
<g id="a_edge1_Node000001_Node000002"><a xlink:title=" ">
<path fill="none" stroke="#63b8ff" d="M92.13,-142.24C110.94,-161.7 154.63,-204.28 199,-229 203.04,-231.25 207.32,-233.34 211.7,-235.28"/>
<polygon fill="#63b8ff" stroke="#63b8ff" points="210.06,-238.39 220.64,-238.94 212.71,-231.91 210.06,-238.39"/>
</a>
</g>
</g>
<!-- Node3 -->
<g id="Node000003" class="node">
<title>Node3</title>
<g id="a_Node000003"><a xlink:href="namespacesrc_1_1build__dataset.html#a9f2d6ed02f77dd053682fe2b9ae77550" target="_top" xlink:title=" ">
<polygon fill="white" stroke="#666666" points="331.62,-220 218.12,-220 218.12,-188 331.62,-188 331.62,-220"/>
<text text-anchor="start" x="226.12" y="-206.5" font-family="Helvetica,sans-Serif" font-size="10.00">src.build_dataset.</text>
<text text-anchor="middle" x="274.88" y="-194.5" font-family="Helvetica,sans-Serif" font-size="10.00">_resolve_player_name</text>
</a>
</g>
</g>
<!-- Node1&#45;&gt;Node3 -->
<g id="edge2_Node000001_Node000003" class="edge">
<title>Node1&#45;&gt;Node3</title>
<g id="a_edge2_Node000001_Node000003"><a xlink:title=" ">
<path fill="none" stroke="#63b8ff" d="M106.88,-142.34C130.33,-152.17 166.87,-167.17 199,-179 203.41,-180.63 207.99,-182.26 212.6,-183.88"/>
<polygon fill="#63b8ff" stroke="#63b8ff" points="211.36,-187.16 221.95,-187.12 213.65,-180.54 211.36,-187.16"/>
</a>
</g>
</g>
<!-- Node4 -->
<g id="Node000004" class="node">
<title>Node4</title>
<g id="a_Node000004"><a xlink:href="namespacesrc_1_1build__dataset.html#a8a2b6f89c6bf73578a61a5096905073a" target="_top" xlink:title=" ">
<polygon fill="white" stroke="#666666" points="321.5,-170 228.25,-170 228.25,-138 321.5,-138 321.5,-170"/>
<text text-anchor="start" x="236.25" y="-156.5" font-family="Helvetica,sans-Serif" font-size="10.00">src.build_dataset.</text>
<text text-anchor="middle" x="274.88" y="-144.5" font-family="Helvetica,sans-Serif" font-size="10.00">_safe_int</text>
</a>
</g>
</g>
<!-- Node1&#45;&gt;Node4 -->
<g id="edge3_Node000001_Node000004" class="edge">
<title>Node1&#45;&gt;Node4</title>
<g id="a_edge3_Node000001_Node000004"><a xlink:title=" ">
<path fill="none" stroke="#63b8ff" d="M163.38,-141.3C181.29,-143.36 199.9,-145.5 216.63,-147.42"/>
<polygon fill="#63b8ff" stroke="#63b8ff" points="216.04,-150.87 226.38,-148.54 216.84,-143.92 216.04,-150.87"/>
</a>
</g>
</g>
<!-- Node5 -->
<g id="Node000005" class="node">
<title>Node5</title>
<g id="a_Node000005"><a xlink:href="namespacesrc_1_1build__dataset.html#a499654528a7963f7ce7a3ae6919c540f" target="_top" xlink:title=" ">
<polygon fill="white" stroke="#666666" points="350.75,-120 199,-120 199,-100 350.75,-100 350.75,-120"/>
<text text-anchor="middle" x="274.88" y="-106.5" font-family="Helvetica,sans-Serif" font-size="10.00">src.build_dataset.compute_age</text>
</a>
</g>
</g>
<!-- Node1&#45;&gt;Node5 -->
<g id="edge4_Node000001_Node000005" class="edge">
<title>Node1&#45;&gt;Node5</title>
<g id="a_edge4_Node000001_Node000005"><a xlink:title=" ">
<path fill="none" stroke="#63b8ff" d="M163.38,-122.7C171.36,-121.79 179.47,-120.85 187.5,-119.93"/>
<polygon fill="#63b8ff" stroke="#63b8ff" points="187.72,-123.43 197.26,-118.81 186.92,-116.47 187.72,-123.43"/>
</a>
</g>
</g>
<!-- Node6 -->
<g id="Node000006" class="node">
<title>Node6</title>
<g id="a_Node000006"><a xlink:href="namespacesrc_1_1build__dataset.html#a152e670d9eb1b48ddb7160e48d90ad6e" target="_top" xlink:title=" ">
<polygon fill="white" stroke="#666666" points="328.25,-82 221.5,-82 221.5,-50 328.25,-50 328.25,-82"/>
<text text-anchor="start" x="229.5" y="-68.5" font-family="Helvetica,sans-Serif" font-size="10.00">src.build_dataset.get</text>
<text text-anchor="middle" x="274.88" y="-56.5" font-family="Helvetica,sans-Serif" font-size="10.00">_rank_on_or_before</text>
</a>
</g>
</g>
<!-- Node1&#45;&gt;Node6 -->
<g id="edge5_Node000001_Node000006" class="edge">
<title>Node1&#45;&gt;Node6</title>
<g id="a_edge5_Node000001_Node000006"><a xlink:title=" ">
<path fill="none" stroke="#63b8ff" d="M111.66,-121.59C135.2,-113.22 169.18,-101.22 199,-91 203.72,-89.38 208.62,-87.72 213.54,-86.05"/>
<polygon fill="#63b8ff" stroke="#63b8ff" points="214.5,-89.42 222.86,-82.91 212.27,-82.79 214.5,-89.42"/>
</a>
</g>
</g>
<!-- Node11 -->
<g id="Node000011" class="node">
<title>Node11</title>
<g id="a_Node000011"><a xlink:href="namespacesrc_1_1build__dataset.html#ac65be995a734653a1ecd7764987b657c" target="_top" xlink:title=" ">
<polygon fill="white" stroke="#666666" points="504,-32 386.75,-32 386.75,0 504,0 504,-32"/>
<text text-anchor="start" x="394.75" y="-18.5" font-family="Helvetica,sans-Serif" font-size="10.00">src.build_dataset.parse</text>
<text text-anchor="middle" x="445.38" y="-6.5" font-family="Helvetica,sans-Serif" font-size="10.00">_date_like</text>
</a>
</g>
</g>
<!-- Node1&#45;&gt;Node11 -->
<g id="edge11_Node000001_Node000011" class="edge">
<title>Node1&#45;&gt;Node11</title>
<g id="a_edge11_Node000001_Node000011"><a xlink:title=" ">
<path fill="none" stroke="#63b8ff" d="M91.84,-121.54C110.17,-101.82 153.04,-59.48 199,-41 255.3,-18.36 324.46,-13.13 374.99,-12.96"/>
<polygon fill="#63b8ff" stroke="#63b8ff" points="374.91,-16.46 384.93,-13 374.94,-9.46 374.91,-16.46"/>
</a>
</g>
</g>
<!-- Node7 -->
<g id="Node000007" class="node">
<title>Node7</title>
<g id="a_Node000007"><a xlink:href="namespacesrc_1_1build__dataset.html#a749851cd9c0893fd71364393d08f1ef4" target="_top" xlink:title=" ">
<polygon fill="white" stroke="#666666" points="496.88,-182 393.88,-182 393.88,-150 496.88,-150 496.88,-182"/>
<text text-anchor="start" x="401.88" y="-168.5" font-family="Helvetica,sans-Serif" font-size="10.00">src.build_dataset.</text>
<text text-anchor="middle" x="445.38" y="-156.5" font-family="Helvetica,sans-Serif" font-size="10.00">_get_ranking_cache</text>
</a>
</g>
</g>
<!-- Node6&#45;&gt;Node7 -->
<g id="edge6_Node000006_Node000007" class="edge">
<title>Node6&#45;&gt;Node7</title>
<g id="a_edge6_Node000006_Node000007"><a xlink:title=" ">
<path fill="none" stroke="#63b8ff" d="M328.69,-78.95C336.5,-82.16 344.13,-86.13 350.75,-91 372.8,-107.23 365.42,-123.82 386.75,-141 387.87,-141.9 389.03,-142.78 390.22,-143.63"/>
<polygon fill="#63b8ff" stroke="#63b8ff" points="388.23,-146.51 398.56,-148.85 391.94,-140.58 388.23,-146.51"/>
</a>
</g>
</g>
<!-- Node9 -->
<g id="Node000009" class="node">
<title>Node9</title>
<g id="a_Node000009"><a xlink:href="namespacesrc_1_1build__dataset.html#a6e651ba229ac9338b5c881e68c0b3e67" target="_top" xlink:title=" ">
<polygon fill="white" stroke="#666666" points="492,-132 398.75,-132 398.75,-100 492,-100 492,-132"/>
<text text-anchor="start" x="406.75" y="-118.5" font-family="Helvetica,sans-Serif" font-size="10.00">src.build_dataset.</text>
<text text-anchor="middle" x="445.38" y="-106.5" font-family="Helvetica,sans-Serif" font-size="10.00">_name_variants</text>
</a>
</g>
</g>
<!-- Node6&#45;&gt;Node9 -->
<g id="edge8_Node000006_Node000009" class="edge">
<title>Node6&#45;&gt;Node9</title>
<g id="a_edge8_Node000006_Node000009"><a xlink:title=" ">
<path fill="none" stroke="#63b8ff" d="M328.73,-81.68C347.36,-87.21 368.39,-93.45 387.36,-99.08"/>
<polygon fill="#63b8ff" stroke="#63b8ff" points="386.22,-102.39 396.8,-101.88 388.21,-95.68 386.22,-102.39"/>
</a>
</g>
</g>
<!-- Node10 -->
<g id="Node000010" class="node">
<title>Node10</title>
<g id="a_Node000010"><a xlink:href="namespacesrc_1_1build__dataset.html#ac876c72ca7e8ecae480d88d6206696f7" target="_top" xlink:title=" ">
<polygon fill="white" stroke="#666666" points="499.88,-82 390.88,-82 390.88,-50 499.88,-50 499.88,-82"/>
<text text-anchor="start" x="398.88" y="-68.5" font-family="Helvetica,sans-Serif" font-size="10.00">src.build_dataset.</text>
<text text-anchor="middle" x="445.38" y="-56.5" font-family="Helvetica,sans-Serif" font-size="10.00">_select_latest_before</text>
</a>
</g>
</g>
<!-- Node6&#45;&gt;Node10 -->
<g id="edge9_Node000006_Node000010" class="edge">
<title>Node6&#45;&gt;Node10</title>
<g id="a_edge9_Node000006_Node000010"><a xlink:title=" ">
<path fill="none" stroke="#63b8ff" d="M328.73,-66C344.72,-66 362.48,-66 379.19,-66"/>
<polygon fill="#63b8ff" stroke="#63b8ff" points="379.04,-69.5 389.04,-66 379.04,-62.5 379.04,-69.5"/>
</a>
</g>
</g>
<!-- Node6&#45;&gt;Node11 -->
<g id="edge10_Node000006_Node000011" class="edge">
<title>Node6&#45;&gt;Node11</title>
<g id="a_edge10_Node000006_Node000011"><a xlink:title=" ">
<path fill="none" stroke="#63b8ff" d="M328.73,-50.32C344.4,-45.67 361.77,-40.51 378.18,-35.64"/>
<polygon fill="#63b8ff" stroke="#63b8ff" points="378.76,-39.12 387.35,-32.92 376.77,-32.41 378.76,-39.12"/>
</a>
</g>
</g>
<!-- Node8 -->
<g id="Node000008" class="node">
<title>Node8</title>
<g id="a_Node000008"><a xlink:href="namespacesrc_1_1build__dataset.html#a3ec095ae8e54a7d44ea5b611bb91ced6" target="_top" xlink:title=" ">
<polygon fill="white" stroke="#666666" points="649.75,-182 540,-182 540,-150 649.75,-150 649.75,-182"/>
<text text-anchor="start" x="548" y="-168.5" font-family="Helvetica,sans-Serif" font-size="10.00">src.build_dataset.</text>
<text text-anchor="middle" x="594.88" y="-156.5" font-family="Helvetica,sans-Serif" font-size="10.00">_build_ranking_cache</text>
</a>
</g>
</g>
<!-- Node7&#45;&gt;Node8 -->
<g id="edge7_Node000007_Node000008" class="edge">
<title>Node7&#45;&gt;Node8</title>
<g id="a_edge7_Node000007_Node000008"><a xlink:title=" ">
<path fill="none" stroke="#63b8ff" d="M497.14,-166C507.23,-166 517.97,-166 528.48,-166"/>
<polygon fill="#63b8ff" stroke="#63b8ff" points="528.23,-169.5 538.23,-166 528.23,-162.5 528.23,-169.5"/>
</a>
</g>
</g>
</g>
</svg>
