<?xml version="1.0" encoding="UTF-8" standalone="no"?>
<!DOCTYPE svg PUBLIC "-//W3C//DTD SVG 1.1//EN"
 "http://www.w3.org/Graphics/SVG/1.1/DTD/svg11.dtd">
<!-- Generated by graphviz version 12.1.0 (20240811.2233)
 -->
<!-- Title: src.predict_outcome._build_base_feature_row Pages: 1 -->
<svg width="276pt" height="90pt"
 viewBox="0.00 0.00 275.50 90.00" xmlns="http://www.w3.org/2000/svg" xmlns:xlink="http://www.w3.org/1999/xlink">
<g id="graph0" class="graph" transform="scale(1 1) rotate(0) translate(4 86)">
<title>src.predict_outcome._build_base_feature_row</title>
<!-- Node1 -->
<g id="Node000001" class="node">
<title>Node1</title>
<g id="a_Node000001"><a xlink:title=" ">
<polygon fill="#999999" stroke="#666666" points="124,-57 0,-57 0,-25 124,-25 124,-57"/>
<text text-anchor="start" x="8" y="-43.5" font-family="Helvetica,sans-Serif" font-size="10.00">src.predict_outcome.</text>
<text text-anchor="middle" x="62" y="-31.5" font-family="Helvetica,sans-Serif" font-size="10.00">_build_base_feature_row</text>
</a>
</g>
</g>
<!-- Node2 -->
<g id="Node000002" class="node">
<title>Node2</title>
<g id="a_Node000002"><a xlink:href="namespacesrc_1_1predict__outcome.html#afb1f1056bbc9e82ac2dd94961643e143" target="_top" xlink:title=" ">
<polygon fill="white" stroke="#666666" points="267.5,-82 160,-82 160,-50 267.5,-50 267.5,-82"/>
<text text-anchor="start" x="168" y="-68.5" font-family="Helvetica,sans-Serif" font-size="10.00">src.predict_outcome.</text>
<text text-anchor="middle" x="213.75" y="-56.5" font-family="Helvetica,sans-Serif" font-size="10.00">_clean_round</text>
</a>
</g>
</g>
<!-- Node1&#45;&gt;Node2 -->
<g id="edge1_Node000001_Node000002" class="edge">
<title>Node1&#45;&gt;Node2</title>
<g id="a_edge1_Node000001_Node000002"><a xlink:title=" ">
<path fill="none" stroke="#63b8ff" d="M124.34,-51.24C132.36,-52.58 140.59,-53.95 148.65,-55.3"/>
<polygon fill="#63b8ff" stroke="#63b8ff" points="147.95,-58.73 158.39,-56.93 149.11,-51.83 147.95,-58.73"/>
</a>
</g>
</g>
<!-- Node3 -->
<g id="Node000003" class="node">
<title>Node3</title>
<g id="a_Node000003"><a xlink:href="namespacesrc_1_1predict__outcome.html#adf96d8139a3fca1ec966a0c408f3665a" target="_top" xlink:title=" ">
<polygon fill="white" stroke="#666666" points="267.5,-32 160,-32 160,0 267.5,0 267.5,-32"/>
<text text-anchor="start" x="168" y="-18.5" font-family="Helvetica,sans-Serif" font-size="10.00">src.predict_outcome.</text>
<text text-anchor="middle" x="213.75" y="-6.5" font-family="Helvetica,sans-Serif" font-size="10.00">_clean_surface</text>
</a>
</g>
</g>
<!-- Node1&#45;&gt;Node3 -->
<g id="edge2_Node000001_Node000003" class="edge">
<title>Node1&#45;&gt;Node3</title>
<g id="a_edge2_Node000001_Node000003"><a xlink:title=" ">
<path fill="none" stroke="#63b8ff" d="M124.34,-30.76C132.36,-29.42 140.59,-28.05 148.65,-26.7"/>
<polygon fill="#63b8ff" stroke="#63b8ff" points="149.11,-30.17 158.39,-25.07 147.95,-23.27 149.11,-30.17"/>
</a>
</g>
</g>
</g>
</svg>
