<?xml version="1.0" encoding="UTF-8" standalone="no"?>
<!DOCTYPE svg PUBLIC "-//W3C//DTD SVG 1.1//EN"
 "http://www.w3.org/Graphics/SVG/1.1/DTD/svg11.dtd">
<!-- Generated by graphviz version 12.1.0 (20240811.2233)
 -->
<!-- Title: src.predict_outcome._resolve_best_of Pages: 1 -->
<svg width="440pt" height="112pt"
 viewBox="0.00 0.00 440.00 112.00" xmlns="http://www.w3.org/2000/svg" xmlns:xlink="http://www.w3.org/1999/xlink">
<g id="graph0" class="graph" transform="scale(1 1) rotate(0) translate(4 108)">
<title>src.predict_outcome._resolve_best_of</title>
<!-- Node1 -->
<g id="Node000001" class="node">
<title>Node1</title>
<g id="a_Node000001"><a xlink:title=" ">
<polygon fill="#999999" stroke="#666666" points="107.5,-54 0,-54 0,-22 107.5,-22 107.5,-54"/>
<text text-anchor="start" x="8" y="-40.5" font-family="Helvetica,sans-Serif" font-size="10.00">src.predict_outcome.</text>
<text text-anchor="middle" x="53.75" y="-28.5" font-family="Helvetica,sans-Serif" font-size="10.00">_resolve_best_of</text>
</a>
</g>
</g>
<!-- Node2 -->
<g id="Node000002" class="node">
<title>Node2</title>
<g id="a_Node000002"><a xlink:href="namespacesrc_1_1predict__outcome.html#a9d764280f79b43e98849d52863b8905b" target="_top" xlink:title=" ">
<polygon fill="white" stroke="#666666" points="269.75,-104 162.25,-104 162.25,-72 269.75,-72 269.75,-104"/>
<text text-anchor="start" x="170.25" y="-90.5" font-family="Helvetica,sans-Serif" font-size="10.00">src.predict_outcome.</text>
<text text-anchor="middle" x="216" y="-78.5" font-family="Helvetica,sans-Serif" font-size="10.00">_default_best_of</text>
</a>
</g>
</g>
<!-- Node1&#45;&gt;Node2 -->
<g id="edge1_Node000001_Node000002" class="edge">
<title>Node1&#45;&gt;Node2</title>
<g id="a_edge1_Node000001_Node000002"><a xlink:title=" ">
<path fill="none" stroke="#63b8ff" d="M107.22,-54.37C121.26,-58.75 136.59,-63.54 151.17,-68.08"/>
<polygon fill="#63b8ff" stroke="#63b8ff" points="150.1,-71.42 160.69,-71.05 152.19,-64.74 150.1,-71.42"/>
</a>
</g>
</g>
<!-- Node3 -->
<g id="Node000003" class="node">
<title>Node3</title>
<g id="a_Node000003"><a xlink:href="namespacesrc_1_1predict__outcome.html#a3ce9a1a9e05e00b17b2e9a5ff9c5341a" target="_top" xlink:title=" ">
<polygon fill="white" stroke="#666666" points="288.5,-54 143.5,-54 143.5,-22 288.5,-22 288.5,-54"/>
<text text-anchor="start" x="151.5" y="-40.5" font-family="Helvetica,sans-Serif" font-size="10.00">src.predict_outcome.</text>
<text text-anchor="middle" x="216" y="-28.5" font-family="Helvetica,sans-Serif" font-size="10.00">_infer_best_of_from_matches</text>
</a>
</g>
</g>
<!-- Node1&#45;&gt;Node3 -->
<g id="edge2_Node000001_Node000003" class="edge">
<title>Node1&#45;&gt;Node3</title>
<g id="a_edge2_Node000001_Node000003"><a xlink:title=" ">
<path fill="none" stroke="#63b8ff" d="M107.67,-38C115.5,-38 123.73,-38 132,-38"/>
<polygon fill="#63b8ff" stroke="#63b8ff" points="131.75,-41.5 141.75,-38 131.75,-34.5 131.75,-41.5"/>
</a>
</g>
</g>
<!-- Node4 -->
<g id="Node000004" class="node">
<title>Node4</title>
<g id="a_Node000004"><a xlink:href="namespacesrc_1_1predict__outcome.html#ad79bbc7abab53776a5a2b3dc4ae19169" target="_top" xlink:title=" ">
<polygon fill="white" stroke="#666666" points="432,-32 324.5,-32 324.5,0 432,0 432,-32"/>
<text text-anchor="start" x="332.5" y="-18.5" font-family="Helvetica,sans-Serif" font-size="10.00">src.predict_outcome.</text>
<text text-anchor="middle" x="378.25" y="-6.5" font-family="Helvetica,sans-Serif" font-size="10.00">_safe_int</text>
</a>
</g>
</g>
<!-- Node1&#45;&gt;Node4 -->
<g id="edge4_Node000001_Node000004" class="edge">
<title>Node1&#45;&gt;Node4</title>
<g id="a_edge4_Node000001_Node000004"><a xlink:title=" ">
<path fill="none" stroke="#63b8ff" d="M104,-21.54C116.72,-18.01 130.5,-14.8 143.5,-13 200.33,-5.15 265.66,-6.88 312.78,-10.01"/>
<polygon fill="#63b8ff" stroke="#63b8ff" points="312.32,-13.49 322.54,-10.7 312.81,-6.5 312.32,-13.49"/>
</a>
</g>
</g>
<!-- Node3&#45;&gt;Node4 -->
<g id="edge3_Node000003_Node000004" class="edge">
<title>Node3&#45;&gt;Node4</title>
<g id="a_edge3_Node000003_Node000004"><a xlink:title=" ">
<path fill="none" stroke="#63b8ff" d="M288.69,-28.16C296.84,-27.04 305.12,-25.9 313.17,-24.8"/>
<polygon fill="#63b8ff" stroke="#63b8ff" points="313.43,-28.29 322.86,-23.47 312.48,-21.36 313.43,-28.29"/>
</a>
</g>
</g>
</g>
</svg>
