<?xml version="1.0" encoding="UTF-8" standalone="no"?>
<!DOCTYPE svg PUBLIC "-//W3C//DTD SVG 1.1//EN"
 "http://www.w3.org/Graphics/SVG/1.1/DTD/svg11.dtd">
<!-- Generated by graphviz version 12.1.0 (20240811.2233)
 -->
<!-- Title: src.tiebreaker_cli.cmd_comparison_models Pages: 1 -->
<svg width="295pt" height="202pt"
 viewBox="0.00 0.00 295.00 202.00" xmlns="http://www.w3.org/2000/svg" xmlns:xlink="http://www.w3.org/1999/xlink">
<g id="graph0" class="graph" transform="scale(1 1) rotate(0) translate(4 198)">
<title>src.tiebreaker_cli.cmd_comparison_models</title>
<!-- Node1 -->
<g id="Node000001" class="node">
<title>Node1</title>
<g id="a_Node000001"><a xlink:title=" ">
<polygon fill="#999999" stroke="#666666" points="112,-119 0,-119 0,-87 112,-87 112,-119"/>
<text text-anchor="start" x="8" y="-105.5" font-family="Helvetica,sans-Serif" font-size="10.00">src.tiebreaker_cli.cmd</text>
<text text-anchor="middle" x="56" y="-93.5" font-family="Helvetica,sans-Serif" font-size="10.00">_comparison_models</text>
</a>
</g>
</g>
<!-- Node2 -->
<g id="Node000002" class="node">
<title>Node2</title>
<g id="a_Node000002"><a xlink:href="namespacesrc_1_1tiebreaker__cli.html#a2936bdb4afc4a170ab8f2749db49fc7a" target="_top" xlink:title=" ">
<polygon fill="white" stroke="#666666" points="264.12,-194 170.88,-194 170.88,-162 264.12,-162 264.12,-194"/>
<text text-anchor="start" x="178.88" y="-180.5" font-family="Helvetica,sans-Serif" font-size="10.00">src.tiebreaker_cli.</text>
<text text-anchor="middle" x="217.5" y="-168.5" font-family="Helvetica,sans-Serif" font-size="10.00">_build_eval_xy</text>
</a>
</g>
</g>
<!-- Node1&#45;&gt;Node2 -->
<g id="edge1_Node000001_Node000002" class="edge">
<title>Node1&#45;&gt;Node2</title>
<g id="a_edge1_Node000001_Node000002"><a xlink:title=" ">
<path fill="none" stroke="#63b8ff" d="M84.32,-119.44C102.1,-129.78 126.01,-143.01 148,-153 151.8,-154.72 155.75,-156.42 159.76,-158.06"/>
<polygon fill="#63b8ff" stroke="#63b8ff" points="158.43,-161.3 169.01,-161.72 161,-154.79 158.43,-161.3"/>
</a>
</g>
</g>
<!-- Node3 -->
<g id="Node000003" class="node">
<title>Node3</title>
<g id="a_Node000003"><a xlink:href="namespacesrc_1_1tiebreaker__cli.html#af8e57e182be417f6a0557226f3b9f057" target="_top" xlink:title=" ">
<polygon fill="white" stroke="#666666" points="281.75,-144 153.25,-144 153.25,-112 281.75,-112 281.75,-144"/>
<text text-anchor="start" x="161.25" y="-130.5" font-family="Helvetica,sans-Serif" font-size="10.00">src.tiebreaker_cli.</text>
<text text-anchor="middle" x="217.5" y="-118.5" font-family="Helvetica,sans-Serif" font-size="10.00">_format_model_load_error</text>
</a>
</g>
</g>
<!-- Node1&#45;&gt;Node3 -->
<g id="edge2_Node000001_Node000003" class="edge">
<title>Node1&#45;&gt;Node3</title>
<g id="a_edge2_Node000001_Node000003"><a xlink:title=" ">
<path fill="none" stroke="#63b8ff" d="M112.34,-111.67C121.82,-113.16 131.81,-114.72 141.69,-116.27"/>
<polygon fill="#63b8ff" stroke="#63b8ff" points="140.86,-119.69 151.28,-117.78 141.95,-112.77 140.86,-119.69"/>
</a>
</g>
</g>
<!-- Node4 -->
<g id="Node000004" class="node">
<title>Node4</title>
<g id="a_Node000004"><a xlink:href="namespacesrc_1_1tiebreaker__cli.html#af63c004f9ed59b884b3fcd31bfe9e252" target="_top" xlink:title=" ">
<polygon fill="white" stroke="#666666" points="287,-94 148,-94 148,-62 287,-62 287,-94"/>
<text text-anchor="start" x="156" y="-80.5" font-family="Helvetica,sans-Serif" font-size="10.00">src.tiebreaker_cli.</text>
<text text-anchor="middle" x="217.5" y="-68.5" font-family="Helvetica,sans-Serif" font-size="10.00">_load_model_bundle_or_exit</text>
</a>
</g>
</g>
<!-- Node1&#45;&gt;Node4 -->
<g id="edge3_Node000001_Node000004" class="edge">
<title>Node1&#45;&gt;Node4</title>
<g id="a_edge3_Node000001_Node000004"><a xlink:title=" ">
<path fill="none" stroke="#63b8ff" d="M112.34,-94.33C120.19,-93.1 128.4,-91.81 136.61,-90.52"/>
<polygon fill="#63b8ff" stroke="#63b8ff" points="136.94,-94.01 146.27,-89.01 135.85,-87.1 136.94,-94.01"/>
</a>
</g>
</g>
<!-- Node5 -->
<g id="Node000005" class="node">
<title>Node5</title>
<g id="a_Node000005"><a xlink:href="namespacesrc_1_1tiebreaker__cli.html#adcac66a66143f94884320e6cc4ff0e33" target="_top" xlink:title=" ">
<polygon fill="white" stroke="#666666" points="269.75,-44 165.25,-44 165.25,0 269.75,0 269.75,-44"/>
<text text-anchor="start" x="173.25" y="-30.5" font-family="Helvetica,sans-Serif" font-size="10.00">src.tiebreaker_cli.</text>
<text text-anchor="start" x="173.25" y="-18.5" font-family="Helvetica,sans-Serif" font-size="10.00">_predict_proba_from</text>
<text text-anchor="middle" x="217.5" y="-6.5" font-family="Helvetica,sans-Serif" font-size="10.00">_joblib_model</text>
</a>
</g>
</g>
<!-- Node1&#45;&gt;Node5 -->
<g id="edge4_Node000001_Node000005" class="edge">
<title>Node1&#45;&gt;Node5</title>
<g id="a_edge4_Node000001_Node000005"><a xlink:title=" ">
<path fill="none" stroke="#63b8ff" d="M85.39,-86.66C103.19,-76.6 126.72,-63.64 148,-53 150.5,-51.75 153.07,-50.49 155.66,-49.23"/>
<polygon fill="#63b8ff" stroke="#63b8ff" points="156.9,-52.52 164.42,-45.07 153.89,-46.2 156.9,-52.52"/>
</a>
</g>
</g>
</g>
</svg>
