<?xml version="1.0" encoding="UTF-8" standalone="no"?>
<!DOCTYPE svg PUBLIC "-//W3C//DTD SVG 1.1//EN"
 "http://www.w3.org/Graphics/SVG/1.1/DTD/svg11.dtd">
<!-- Generated by graphviz version 12.1.0 (20240811.2233)
 -->
<!-- Title: src.build_dataset.main Pages: 1 -->
<svg width="438pt" height="109pt"
 viewBox="0.00 0.00 437.75 109.00" xmlns="http://www.w3.org/2000/svg" xmlns:xlink="http://www.w3.org/1999/xlink">
<g id="graph0" class="graph" transform="scale(1 1) rotate(0) translate(4 105)">
<title>src.build_dataset.main</title>
<!-- Node1 -->
<g id="Node000001" class="node">
<title>Node1</title>
<g id="a_Node000001"><a xlink:title=" ">
<polygon fill="#999999" stroke="#666666" points="114.25,-73 0,-73 0,-53 114.25,-53 114.25,-73"/>
<text text-anchor="middle" x="57.12" y="-59.5" font-family="Helvetica,sans-Serif" font-size="10.00">src.build_dataset.main</text>
</a>
</g>
</g>
<!-- Node2 -->
<g id="Node000002" class="node">
<title>Node2</title>
<g id="a_Node000002"><a xlink:href="namespacesrc_1_1build__dataset.html#a41ffeffada997dbd7ca5c37dca71d665" target="_top" xlink:title=" ">
<polygon fill="white" stroke="#666666" points="263.75,-101 150.25,-101 150.25,-69 263.75,-69 263.75,-101"/>
<text text-anchor="start" x="158.25" y="-87.5" font-family="Helvetica,sans-Serif" font-size="10.00">src.build_dataset.build</text>
<text text-anchor="middle" x="207" y="-75.5" font-family="Helvetica,sans-Serif" font-size="10.00">_parser</text>
</a>
</g>
</g>
<!-- Node1&#45;&gt;Node2 -->
<g id="edge1_Node000001_Node000002" class="edge">
<title>Node1&#45;&gt;Node2</title>
<g id="a_edge1_Node000001_Node000002"><a xlink:title=" ">
<path fill="none" stroke="#63b8ff" d="M114.45,-71.38C122.33,-72.55 130.49,-73.77 138.55,-74.96"/>
<polygon fill="#63b8ff" stroke="#63b8ff" points="137.93,-78.41 148.33,-76.42 138.96,-71.49 137.93,-78.41"/>
</a>
</g>
</g>
<!-- Node3 -->
<g id="Node000003" class="node">
<title>Node3</title>
<g id="a_Node000003"><a xlink:href="namespacesrc_1_1build__dataset.html#a0dba4de211614f73abe9c83f574c2f5a" target="_top" xlink:title=" ">
<polygon fill="white" stroke="#666666" points="260.38,-51 153.62,-51 153.62,-31 260.38,-31 260.38,-51"/>
<text text-anchor="middle" x="207" y="-37.5" font-family="Helvetica,sans-Serif" font-size="10.00">src.build_dataset.run</text>
</a>
</g>
</g>
<!-- Node1&#45;&gt;Node3 -->
<g id="edge2_Node000001_Node000003" class="edge">
<title>Node1&#45;&gt;Node3</title>
<g id="a_edge2_Node000001_Node000003"><a xlink:title=" ">
<path fill="none" stroke="#63b8ff" d="M114.45,-54.62C123.5,-53.27 132.93,-51.87 142.14,-50.5"/>
<polygon fill="#63b8ff" stroke="#63b8ff" points="142.36,-54.01 151.74,-49.07 141.33,-47.08 142.36,-54.01"/>
</a>
</g>
</g>
<!-- Node4 -->
<g id="Node000004" class="node">
<title>Node4</title>
<g id="a_Node000004"><a xlink:href="namespacesrc_1_1build__dataset.html#a778cda3570b9337c2d5a1d5e284b7dbf" target="_top" xlink:title=" ">
<polygon fill="white" stroke="#666666" points="429.75,-82 299.75,-82 299.75,-50 429.75,-50 429.75,-82"/>
<text text-anchor="start" x="307.75" y="-68.5" font-family="Helvetica,sans-Serif" font-size="10.00">src.build_dataset.describe</text>
<text text-anchor="middle" x="364.75" y="-56.5" font-family="Helvetica,sans-Serif" font-size="10.00">_dataframe</text>
</a>
</g>
</g>
<!-- Node3&#45;&gt;Node4 -->
<g id="edge3_Node000003_Node000004" class="edge">
<title>Node3&#45;&gt;Node4</title>
<g id="a_edge3_Node000003_Node000004"><a xlink:title=" ">
<path fill="none" stroke="#63b8ff" d="M260.73,-49.46C269.58,-50.88 278.91,-52.38 288.2,-53.87"/>
<polygon fill="#63b8ff" stroke="#63b8ff" points="287.54,-57.31 297.97,-55.44 288.65,-50.4 287.54,-57.31"/>
</a>
</g>
</g>
<!-- Node5 -->
<g id="Node000005" class="node">
<title>Node5</title>
<g id="a_Node000005"><a xlink:href="namespacesrc_1_1build__dataset.html#aebdfbd5cb2fe0c6ad47c04d927084c4d" target="_top" xlink:title=" ">
<polygon fill="white" stroke="#666666" points="421.88,-32 307.62,-32 307.62,0 421.88,0 421.88,-32"/>
<text text-anchor="start" x="315.62" y="-18.5" font-family="Helvetica,sans-Serif" font-size="10.00">src.build_dataset.save</text>
<text text-anchor="middle" x="364.75" y="-6.5" font-family="Helvetica,sans-Serif" font-size="10.00">_dataset</text>
</a>
</g>
</g>
<!-- Node3&#45;&gt;Node5 -->
<g id="edge4_Node000003_Node000005" class="edge">
<title>Node3&#45;&gt;Node5</title>
<g id="a_edge4_Node000003_Node000005"><a xlink:title=" ">
<path fill="none" stroke="#63b8ff" d="M260.73,-32.54C272.1,-30.71 284.27,-28.76 296.12,-26.86"/>
<polygon fill="#63b8ff" stroke="#63b8ff" points="296.53,-30.33 305.85,-25.29 295.42,-23.42 296.53,-30.33"/>
</a>
</g>
</g>
</g>
</svg>
