<?xml version="1.0" encoding="UTF-8" standalone="no"?>
<!DOCTYPE svg PUBLIC "-//W3C//DTD SVG 1.1//EN"
 "http://www.w3.org/Graphics/SVG/1.1/DTD/svg11.dtd">
<!-- Generated by graphviz version 12.1.0 (20240811.2233)
 -->
<!-- Title: src.features_recent._build_player_record Pages: 1 -->
<svg width="275pt" height="140pt"
 viewBox="0.00 0.00 274.75 140.00" xmlns="http://www.w3.org/2000/svg" xmlns:xlink="http://www.w3.org/1999/xlink">
<g id="graph0" class="graph" transform="scale(1 1) rotate(0) translate(4 136)">
<title>src.features_recent._build_player_record</title>
<!-- Node1 -->
<g id="Node000001" class="node">
<title>Node1</title>
<g id="a_Node000001"><a xlink:title=" ">
<polygon fill="#999999" stroke="#666666" points="105.25,-82 0,-82 0,-50 105.25,-50 105.25,-82"/>
<text text-anchor="start" x="8" y="-68.5" font-family="Helvetica,sans-Serif" font-size="10.00">src.features_recent.</text>
<text text-anchor="middle" x="52.62" y="-56.5" font-family="Helvetica,sans-Serif" font-size="10.00">_build_player_record</text>
</a>
</g>
</g>
<!-- Node2 -->
<g id="Node000002" class="node">
<title>Node2</title>
<g id="a_Node000002"><a xlink:href="namespacesrc_1_1features__recent.html#abf849ca46d43812427a8ef0358b731ef" target="_top" xlink:title=" ">
<polygon fill="white" stroke="#666666" points="255.5,-132 152.5,-132 152.5,-100 255.5,-100 255.5,-132"/>
<text text-anchor="start" x="160.5" y="-118.5" font-family="Helvetica,sans-Serif" font-size="10.00">src.features_recent.</text>
<text text-anchor="middle" x="204" y="-106.5" font-family="Helvetica,sans-Serif" font-size="10.00">_safe_player_id</text>
</a>
</g>
</g>
<!-- Node1&#45;&gt;Node2 -->
<g id="edge1_Node000001_Node000002" class="edge">
<title>Node1&#45;&gt;Node2</title>
<g id="a_edge1_Node000001_Node000002"><a xlink:title=" ">
<path fill="none" stroke="#63b8ff" d="M102.54,-82.37C115.49,-86.71 129.63,-91.44 143.1,-95.95"/>
<polygon fill="#63b8ff" stroke="#63b8ff" points="141.69,-99.17 152.29,-99.03 143.92,-92.53 141.69,-99.17"/>
</a>
</g>
</g>
<!-- Node3 -->
<g id="Node000003" class="node">
<title>Node3</title>
<g id="a_Node000003"><a xlink:href="namespacesrc_1_1features__recent.html#a56f9acf54418d24c31eaf53f0d19c800" target="_top" xlink:title=" ">
<polygon fill="white" stroke="#666666" points="255.5,-82 152.5,-82 152.5,-50 255.5,-50 255.5,-82"/>
<text text-anchor="start" x="160.5" y="-68.5" font-family="Helvetica,sans-Serif" font-size="10.00">src.features_recent.</text>
<text text-anchor="middle" x="204" y="-56.5" font-family="Helvetica,sans-Serif" font-size="10.00">_safe_ratio</text>
</a>
</g>
</g>
<!-- Node1&#45;&gt;Node3 -->
<g id="edge2_Node000001_Node000003" class="edge">
<title>Node1&#45;&gt;Node3</title>
<g id="a_edge2_Node000001_Node000003"><a xlink:title=" ">
<path fill="none" stroke="#63b8ff" d="M105.45,-66C116.76,-66 128.85,-66 140.53,-66"/>
<polygon fill="#63b8ff" stroke="#63b8ff" points="140.51,-69.5 150.51,-66 140.51,-62.5 140.51,-69.5"/>
</a>
</g>
</g>
<!-- Node4 -->
<g id="Node000004" class="node">
<title>Node4</title>
<g id="a_Node000004"><a xlink:href="namespacesrc_1_1features__recent.html#ac4f581f479bf2f1e89abeaddabe359fe" target="_top" xlink:title=" ">
<polygon fill="white" stroke="#666666" points="266.75,-32 141.25,-32 141.25,0 266.75,0 266.75,-32"/>
<text text-anchor="start" x="149.25" y="-18.5" font-family="Helvetica,sans-Serif" font-size="10.00">src.features_recent.</text>
<text text-anchor="middle" x="204" y="-6.5" font-family="Helvetica,sans-Serif" font-size="10.00">_second_serve_attempts</text>
</a>
</g>
</g>
<!-- Node1&#45;&gt;Node4 -->
<g id="edge3_Node000001_Node000004" class="edge">
<title>Node1&#45;&gt;Node4</title>
<g id="a_edge3_Node000001_Node000004"><a xlink:title=" ">
<path fill="none" stroke="#63b8ff" d="M102.54,-49.63C115.49,-45.29 129.63,-40.56 143.1,-36.05"/>
<polygon fill="#63b8ff" stroke="#63b8ff" points="143.92,-39.47 152.29,-32.97 141.69,-32.83 143.92,-39.47"/>
</a>
</g>
</g>
</g>
</svg>
