<?xml version="1.0" encoding="UTF-8" standalone="no"?>
<!DOCTYPE svg PUBLIC "-//W3C//DTD SVG 1.1//EN"
 "http://www.w3.org/Graphics/SVG/1.1/DTD/svg11.dtd">
<!-- Generated by graphviz version 12.1.0 (20240811.2233)
 -->
<!-- Title: src.build_dataset.describe_dataframe Pages: 1 -->
<svg width="431pt" height="40pt"
 viewBox="0.00 0.00 431.00 40.00" xmlns="http://www.w3.org/2000/svg" xmlns:xlink="http://www.w3.org/1999/xlink">
<g id="graph0" class="graph" transform="scale(1 1) rotate(0) translate(4 36)">
<title>src.build_dataset.describe_dataframe</title>
<!-- Node1 -->
<g id="Node000001" class="node">
<title>Node1</title>
<g id="a_Node000001"><a xlink:title=" ">
<polygon fill="#999999" stroke="#666666" points="423,-32 293,-32 293,0 423,0 423,-32"/>
<text text-anchor="start" x="301" y="-18.5" font-family="Helvetica,sans-Serif" font-size="10.00">src.build_dataset.describe</text>
<text text-anchor="middle" x="358" y="-6.5" font-family="Helvetica,sans-Serif" font-size="10.00">_dataframe</text>
</a>
</g>
</g>
<!-- Node2 -->
<g id="Node000002" class="node">
<title>Node2</title>
<g id="a_Node000002"><a xlink:href="namespacesrc_1_1build__dataset.html#a0dba4de211614f73abe9c83f574c2f5a" target="_top" xlink:title=" ">
<polygon fill="white" stroke="#666666" points="257,-26 150.25,-26 150.25,-6 257,-6 257,-26"/>
<text text-anchor="middle" x="203.62" y="-12.5" font-family="Helvetica,sans-Serif" font-size="10.00">src.build_dataset.run</text>
</a>
</g>
</g>
<!-- Node1&#45;&gt;Node2 -->
<g id="edge1_Node000001_Node000002" class="edge">
<title>Node1&#45;&gt;Node2</title>
<g id="a_edge1_Node000001_Node000002"><a xlink:title=" ">
<path fill="none" stroke="#63b8ff" d="M281.33,-16C273.16,-16 264.99,-16 257.19,-16"/>
<polygon fill="#63b8ff" stroke="#63b8ff" points="281.31,-19.5 291.31,-16 281.31,-12.5 281.31,-19.5"/>
</a>
</g>
</g>
<!-- Node3 -->
<g id="Node000003" class="node">
<title>Node3</title>
<g id="a_Node000003"><a xlink:href="namespacesrc_1_1build__dataset.html#afd72ddd4f6512f34cb23164d1b332c21" target="_top" xlink:title=" ">
<polygon fill="white" stroke="#666666" points="114.25,-26 0,-26 0,-6 114.25,-6 114.25,-26"/>
<text text-anchor="middle" x="57.12" y="-12.5" font-family="Helvetica,sans-Serif" font-size="10.00">src.build_dataset.main</text>
</a>
</g>
</g>
<!-- Node2&#45;&gt;Node3 -->
<g id="edge2_Node000002_Node000003" class="edge">
<title>Node2&#45;&gt;Node3</title>
<g id="a_edge2_Node000002_Node000003"><a xlink:title=" ">
<path fill="none" stroke="#63b8ff" d="M138.7,-16C130.57,-16 122.31,-16 114.32,-16"/>
<polygon fill="#63b8ff" stroke="#63b8ff" points="138.53,-19.5 148.53,-16 138.53,-12.5 138.53,-19.5"/>
</a>
</g>
</g>
</g>
</svg>
