<?xml version="1.0" encoding="UTF-8" standalone="no"?>
<!DOCTYPE svg PUBLIC "-//W3C//DTD SVG 1.1//EN"
 "http://www.w3.org/Graphics/SVG/1.1/DTD/svg11.dtd">
<!-- Generated by graphviz version 12.1.0 (20240811.2233)
 -->
<!-- Title: src.train_outcome.train_pipeline Pages: 1 -->
<svg width="451pt" height="590pt"
 viewBox="0.00 0.00 450.50 590.00" xmlns="http://www.w3.org/2000/svg" xmlns:xlink="http://www.w3.org/1999/xlink">
<g id="graph0" class="graph" transform="scale(1 1) rotate(0) translate(4 586)">
<title>src.train_outcome.train_pipeline</title>
<!-- Node1 -->
<g id="Node000001" class="node">
<title>Node1</title>
<g id="a_Node000001"><a xlink:title=" ">
<polygon fill="#999999" stroke="#666666" points="115.75,-307 0,-307 0,-275 115.75,-275 115.75,-307"/>
<text text-anchor="start" x="8" y="-293.5" font-family="Helvetica,sans-Serif" font-size="10.00">src.train_outcome.train</text>
<text text-anchor="middle" x="57.88" y="-281.5" font-family="Helvetica,sans-Serif" font-size="10.00">_pipeline</text>
</a>
</g>
</g>
<!-- Node2 -->
<g id="Node000002" class="node">
<title>Node2</title>
<g id="a_Node000002"><a xlink:href="namespacesrc_1_1train__outcome.html#a8c1a5cbd39c177fd4fb282bcedf2f493" target="_top" xlink:title=" ">
<polygon fill="white" stroke="#666666" points="270.88,-582 167.12,-582 167.12,-550 270.88,-550 270.88,-582"/>
<text text-anchor="start" x="175.12" y="-568.5" font-family="Helvetica,sans-Serif" font-size="10.00">src.train_outcome.</text>
<text text-anchor="middle" x="219" y="-556.5" font-family="Helvetica,sans-Serif" font-size="10.00">_parse_xgb_params</text>
</a>
</g>
</g>
<!-- Node1&#45;&gt;Node2 -->
<g id="edge1_Node000001_Node000002" class="edge">
<title>Node1&#45;&gt;Node2</title>
<g id="a_edge1_Node000001_Node000002"><a xlink:title=" ">
<path fill="none" stroke="#63b8ff" d="M60.32,-307.19C65.06,-350.95 83.99,-472.89 151.75,-541 153.51,-542.77 155.41,-544.42 157.41,-545.95"/>
<polygon fill="#63b8ff" stroke="#63b8ff" points="155.19,-548.68 165.49,-551.14 158.97,-542.79 155.19,-548.68"/>
</a>
</g>
</g>
<!-- Node3 -->
<g id="Node000003" class="node">
<title>Node3</title>
<g id="a_Node000003"><a xlink:href="namespacesrc_1_1train__outcome.html#aec669e404b4dd34ea2720dc7759a826c" target="_top" xlink:title=" ">
<polygon fill="white" stroke="#666666" points="277.62,-532 160.38,-532 160.38,-500 277.62,-500 277.62,-532"/>
<text text-anchor="start" x="168.38" y="-518.5" font-family="Helvetica,sans-Serif" font-size="10.00">src.train_outcome.build</text>
<text text-anchor="middle" x="219" y="-506.5" font-family="Helvetica,sans-Serif" font-size="10.00">_final_pipeline</text>
</a>
</g>
</g>
<!-- Node1&#45;&gt;Node3 -->
<g id="edge2_Node000001_Node000003" class="edge">
<title>Node1&#45;&gt;Node3</title>
<g id="a_edge2_Node000001_Node000003"><a xlink:title=" ">
<path fill="none" stroke="#63b8ff" d="M62.09,-307.48C70.27,-345.21 95.37,-438.64 151.75,-491 152.52,-491.71 153.31,-492.41 154.12,-493.08"/>
<polygon fill="#63b8ff" stroke="#63b8ff" points="152.02,-495.88 162.23,-498.73 156.02,-490.14 152.02,-495.88"/>
</a>
</g>
</g>
<!-- Node4 -->
<g id="Node000004" class="node">
<title>Node4</title>
<g id="a_Node000004"><a xlink:href="namespacesrc_1_1train__outcome.html#a9c06b135f6dcb1453ecb3e05d15acfc2" target="_top" xlink:title=" ">
<polygon fill="white" stroke="#666666" points="277.62,-482 160.38,-482 160.38,-450 277.62,-450 277.62,-482"/>
<text text-anchor="start" x="168.38" y="-468.5" font-family="Helvetica,sans-Serif" font-size="10.00">src.train_outcome.build</text>
<text text-anchor="middle" x="219" y="-456.5" font-family="Helvetica,sans-Serif" font-size="10.00">_splits</text>
</a>
</g>
</g>
<!-- Node1&#45;&gt;Node4 -->
<g id="edge3_Node000001_Node000004" class="edge">
<title>Node1&#45;&gt;Node4</title>
<g id="a_edge3_Node000001_Node000004"><a xlink:title=" ">
<path fill="none" stroke="#63b8ff" d="M64.87,-307.43C76.8,-337.94 106.34,-403.63 151.75,-441 152.87,-441.92 154.03,-442.81 155.22,-443.67"/>
<polygon fill="#63b8ff" stroke="#63b8ff" points="153.25,-446.57 163.59,-448.88 156.94,-440.62 153.25,-446.57"/>
</a>
</g>
</g>
<!-- Node6 -->
<g id="Node000006" class="node">
<title>Node6</title>
<g id="a_Node000006"><a xlink:href="namespacesrc_1_1train__outcome.html#abc015bcaaf9ea010c49144290054b7d8" target="_top" xlink:title=" ">
<polygon fill="white" stroke="#666666" points="285.88,-432 152.12,-432 152.12,-400 285.88,-400 285.88,-432"/>
<text text-anchor="start" x="160.12" y="-418.5" font-family="Helvetica,sans-Serif" font-size="10.00">src.train_outcome.calibrate</text>
<text text-anchor="middle" x="219" y="-406.5" font-family="Helvetica,sans-Serif" font-size="10.00">_model</text>
</a>
</g>
</g>
<!-- Node1&#45;&gt;Node6 -->
<g id="edge5_Node000001_Node000006" class="edge">
<title>Node1&#45;&gt;Node6</title>
<g id="a_edge5_Node000001_Node000006"><a xlink:title=" ">
<path fill="none" stroke="#63b8ff" d="M70.27,-307.38C86.22,-329.2 117.14,-367.74 151.75,-391 153.55,-392.21 155.41,-393.37 157.33,-394.48"/>
<polygon fill="#63b8ff" stroke="#63b8ff" points="155.4,-397.42 165.88,-398.96 158.64,-391.22 155.4,-397.42"/>
</a>
</g>
</g>
<!-- Node7 -->
<g id="Node000007" class="node">
<title>Node7</title>
<g id="a_Node000007"><a xlink:href="namespacesrc_1_1train__outcome.html#ae5d5d6bc1164cee0f64fc354fb58998a" target="_top" xlink:title=" ">
<polygon fill="white" stroke="#666666" points="286.25,-382 151.75,-382 151.75,-350 286.25,-350 286.25,-382"/>
<text text-anchor="start" x="159.75" y="-368.5" font-family="Helvetica,sans-Serif" font-size="10.00">src.train_outcome.compute</text>
<text text-anchor="middle" x="219" y="-356.5" font-family="Helvetica,sans-Serif" font-size="10.00">_recency_weights</text>
</a>
</g>
</g>
<!-- Node1&#45;&gt;Node7 -->
<g id="edge6_Node000001_Node000007" class="edge">
<title>Node1&#45;&gt;Node7</title>
<g id="a_edge6_Node000001_Node000007"><a xlink:title=" ">
<path fill="none" stroke="#63b8ff" d="M86.83,-307.31C105.02,-317.61 129.42,-330.83 151.75,-341 154.89,-342.43 158.14,-343.85 161.44,-345.24"/>
<polygon fill="#63b8ff" stroke="#63b8ff" points="160.07,-348.46 170.65,-349 162.72,-341.98 160.07,-348.46"/>
</a>
</g>
</g>
<!-- Node8 -->
<g id="Node000008" class="node">
<title>Node8</title>
<g id="a_Node000008"><a xlink:href="namespacesrc_1_1train__outcome.html#a66d1945138e0591d7860b2fc3f322d96" target="_top" xlink:title=" ">
<polygon fill="white" stroke="#666666" points="285.88,-332 152.12,-332 152.12,-300 285.88,-300 285.88,-332"/>
<text text-anchor="start" x="160.12" y="-318.5" font-family="Helvetica,sans-Serif" font-size="10.00">src.train_outcome.evaluate</text>
<text text-anchor="middle" x="219" y="-306.5" font-family="Helvetica,sans-Serif" font-size="10.00">_split</text>
</a>
</g>
</g>
<!-- Node1&#45;&gt;Node8 -->
<g id="edge7_Node000001_Node000008" class="edge">
<title>Node1&#45;&gt;Node8</title>
<g id="a_edge7_Node000001_Node000008"><a xlink:title=" ">
<path fill="none" stroke="#63b8ff" d="M115.87,-299.95C123.84,-301.21 132.14,-302.51 140.41,-303.81"/>
<polygon fill="#63b8ff" stroke="#63b8ff" points="139.72,-307.25 150.15,-305.34 140.81,-300.33 139.72,-307.25"/>
</a>
</g>
</g>
<!-- Node9 -->
<g id="Node000009" class="node">
<title>Node9</title>
<g id="a_Node000009"><a xlink:href="namespacesrc_1_1train__outcome.html#a80cf40519b43507179b144e3e2567e8a" target="_top" xlink:title=" ">
<polygon fill="white" stroke="#666666" points="274.25,-282 163.75,-282 163.75,-250 274.25,-250 274.25,-282"/>
<text text-anchor="start" x="171.75" y="-268.5" font-family="Helvetica,sans-Serif" font-size="10.00">src.train_outcome.get</text>
<text text-anchor="middle" x="219" y="-256.5" font-family="Helvetica,sans-Serif" font-size="10.00">_available_years</text>
</a>
</g>
</g>
<!-- Node1&#45;&gt;Node9 -->
<g id="edge8_Node000001_Node000009" class="edge">
<title>Node1&#45;&gt;Node9</title>
<g id="a_edge8_Node000001_Node000009"><a xlink:title=" ">
<path fill="none" stroke="#63b8ff" d="M115.87,-282.05C127.56,-280.21 139.96,-278.26 151.94,-276.38"/>
<polygon fill="#63b8ff" stroke="#63b8ff" points="152.43,-279.84 161.77,-274.83 151.35,-272.93 152.43,-279.84"/>
</a>
</g>
</g>
<!-- Node10 -->
<g id="Node000010" class="node">
<title>Node10</title>
<g id="a_Node000010"><a xlink:href="namespacesrc_1_1train__outcome.html#a3e219c70bae97f6e5d30c7b6cb272acb" target="_top" xlink:title=" ">
<polygon fill="white" stroke="#666666" points="274.25,-232 163.75,-232 163.75,-200 274.25,-200 274.25,-232"/>
<text text-anchor="start" x="171.75" y="-218.5" font-family="Helvetica,sans-Serif" font-size="10.00">src.train_outcome.get</text>
<text text-anchor="middle" x="219" y="-206.5" font-family="Helvetica,sans-Serif" font-size="10.00">_feature_columns</text>
</a>
</g>
</g>
<!-- Node1&#45;&gt;Node10 -->
<g id="edge9_Node000001_Node000010" class="edge">
<title>Node1&#45;&gt;Node10</title>
<g id="a_edge9_Node000001_Node000010"><a xlink:title=" ">
<path fill="none" stroke="#63b8ff" d="M86.83,-274.69C105.02,-264.39 129.42,-251.17 151.75,-241 154.89,-239.57 158.14,-238.15 161.44,-236.76"/>
<polygon fill="#63b8ff" stroke="#63b8ff" points="162.72,-240.02 170.65,-233 160.07,-233.54 162.72,-240.02"/>
</a>
</g>
</g>
<!-- Node11 -->
<g id="Node000011" class="node">
<title>Node11</title>
<g id="a_Node000011"><a xlink:href="namespacesrc_1_1train__outcome.html#adba76595cee632b889e09b9f1e07965f" target="_top" xlink:title=" ">
<polygon fill="white" stroke="#666666" points="273.88,-182 164.12,-182 164.12,-150 273.88,-150 273.88,-182"/>
<text text-anchor="start" x="172.12" y="-168.5" font-family="Helvetica,sans-Serif" font-size="10.00">src.train_outcome.init</text>
<text text-anchor="middle" x="219" y="-156.5" font-family="Helvetica,sans-Serif" font-size="10.00">_classifier</text>
</a>
</g>
</g>
<!-- Node1&#45;&gt;Node11 -->
<g id="edge10_Node000001_Node000011" class="edge">
<title>Node1&#45;&gt;Node11</title>
<g id="a_edge10_Node000001_Node000011"><a xlink:title=" ">
<path fill="none" stroke="#63b8ff" d="M70.27,-274.62C86.22,-252.8 117.14,-214.26 151.75,-191 153.55,-189.79 155.41,-188.63 157.33,-187.52"/>
<polygon fill="#63b8ff" stroke="#63b8ff" points="158.64,-190.78 165.88,-183.04 155.4,-184.58 158.64,-190.78"/>
</a>
</g>
</g>
<!-- Node12 -->
<g id="Node000012" class="node">
<title>Node12</title>
<g id="a_Node000012"><a xlink:href="namespacesrc_1_1train__outcome.html#a14c3578c29faa5643dd9ffbc95bf31b4" target="_top" xlink:title=" ">
<polygon fill="white" stroke="#666666" points="276.5,-132 161.5,-132 161.5,-100 276.5,-100 276.5,-132"/>
<text text-anchor="start" x="169.5" y="-118.5" font-family="Helvetica,sans-Serif" font-size="10.00">src.train_outcome.load</text>
<text text-anchor="middle" x="219" y="-106.5" font-family="Helvetica,sans-Serif" font-size="10.00">_dataset</text>
</a>
</g>
</g>
<!-- Node1&#45;&gt;Node12 -->
<g id="edge11_Node000001_Node000012" class="edge">
<title>Node1&#45;&gt;Node12</title>
<g id="a_edge11_Node000001_Node000012"><a xlink:title=" ">
<path fill="none" stroke="#63b8ff" d="M64.87,-274.57C76.8,-244.06 106.34,-178.37 151.75,-141 152.87,-140.08 154.03,-139.19 155.22,-138.33"/>
<polygon fill="#63b8ff" stroke="#63b8ff" points="156.94,-141.38 163.59,-133.12 153.25,-135.43 156.94,-141.38"/>
</a>
</g>
</g>
<!-- Node13 -->
<g id="Node000013" class="node">
<title>Node13</title>
<g id="a_Node000013"><a xlink:href="namespacesrc_1_1train__outcome.html#a743d2ee9070ecdff3d48809af82f641c" target="_top" xlink:title=" ">
<polygon fill="white" stroke="#666666" points="283.25,-82 154.75,-82 154.75,-50 283.25,-50 283.25,-82"/>
<text text-anchor="start" x="162.75" y="-68.5" font-family="Helvetica,sans-Serif" font-size="10.00">src.train_outcome.resolve</text>
<text text-anchor="middle" x="219" y="-56.5" font-family="Helvetica,sans-Serif" font-size="10.00">_split_config</text>
</a>
</g>
</g>
<!-- Node1&#45;&gt;Node13 -->
<g id="edge12_Node000001_Node000013" class="edge">
<title>Node1&#45;&gt;Node13</title>
<g id="a_edge12_Node000001_Node000013"><a xlink:title=" ">
<path fill="none" stroke="#63b8ff" d="M62.09,-274.52C70.27,-236.79 95.37,-143.36 151.75,-91 152.52,-90.29 153.31,-89.59 154.12,-88.92"/>
<polygon fill="#63b8ff" stroke="#63b8ff" points="156.02,-91.86 162.23,-83.27 152.02,-86.12 156.02,-91.86"/>
</a>
</g>
</g>
<!-- Node14 -->
<g id="Node000014" class="node">
<title>Node14</title>
<g id="a_Node000014"><a xlink:href="namespacesrc_1_1train__outcome.html#adbdc1ea08c43efea8948dd20ba58f978" target="_top" xlink:title=" ">
<polygon fill="white" stroke="#666666" points="276.88,-32 161.12,-32 161.12,0 276.88,0 276.88,-32"/>
<text text-anchor="start" x="169.12" y="-18.5" font-family="Helvetica,sans-Serif" font-size="10.00">src.train_outcome.train</text>
<text text-anchor="middle" x="219" y="-6.5" font-family="Helvetica,sans-Serif" font-size="10.00">_classifier</text>
</a>
</g>
</g>
<!-- Node1&#45;&gt;Node14 -->
<g id="edge13_Node000001_Node000014" class="edge">
<title>Node1&#45;&gt;Node14</title>
<g id="a_edge13_Node000001_Node000014"><a xlink:title=" ">
<path fill="none" stroke="#63b8ff" d="M60.32,-274.81C65.06,-231.05 83.99,-109.11 151.75,-41 152.37,-40.38 153,-39.77 153.65,-39.18"/>
<polygon fill="#63b8ff" stroke="#63b8ff" points="155.73,-42 161.65,-33.21 151.54,-36.39 155.73,-42"/>
</a>
</g>
</g>
<!-- Node5 -->
<g id="Node000005" class="node">
<title>Node5</title>
<g id="a_Node000005"><a xlink:href="namespacesrc_1_1train__outcome.html#a0484954fad66c96a7dc3d70ab5d6c66f" target="_top" xlink:title=" ">
<polygon fill="white" stroke="#666666" points="442.5,-482 322.25,-482 322.25,-450 442.5,-450 442.5,-482"/>
<text text-anchor="start" x="330.25" y="-468.5" font-family="Helvetica,sans-Serif" font-size="10.00">src.train_outcome.</text>
<text text-anchor="middle" x="382.38" y="-456.5" font-family="Helvetica,sans-Serif" font-size="10.00">_build_row_split_masks</text>
</a>
</g>
</g>
<!-- Node4&#45;&gt;Node5 -->
<g id="edge4_Node000004_Node000005" class="edge">
<title>Node4&#45;&gt;Node5</title>
<g id="a_edge4_Node000004_Node000005"><a xlink:title=" ">
<path fill="none" stroke="#63b8ff" d="M277.8,-466C288.41,-466 299.59,-466 310.53,-466"/>
<polygon fill="#63b8ff" stroke="#63b8ff" points="310.29,-469.5 320.29,-466 310.29,-462.5 310.29,-469.5"/>
</a>
</g>
</g>
</g>
</svg>
