<?xml version="1.0" encoding="UTF-8" standalone="no"?>
<!DOCTYPE svg PUBLIC "-//W3C//DTD SVG 1.1//EN"
 "http://www.w3.org/Graphics/SVG/1.1/DTD/svg11.dtd">
<!-- Generated by graphviz version 12.1.0 (20240811.2233)
 -->
<!-- Title: src.predict_outcome._clean_round Pages: 1 -->
<svg width="448pt" height="40pt"
 viewBox="0.00 0.00 448.25 40.00" xmlns="http://www.w3.org/2000/svg" xmlns:xlink="http://www.w3.org/1999/xlink">
<g id="graph0" class="graph" transform="scale(1 1) rotate(0) translate(4 36)">
<title>src.predict_outcome._clean_round</title>
<!-- Node1 -->
<g id="Node000001" class="node">
<title>Node1</title>
<g id="a_Node000001"><a xlink:title=" ">
<polygon fill="#999999" stroke="#666666" points="440.25,-32 332.75,-32 332.75,0 440.25,0 440.25,-32"/>
<text text-anchor="start" x="340.75" y="-18.5" font-family="Helvetica,sans-Serif" font-size="10.00">src.predict_outcome.</text>
<text text-anchor="middle" x="386.5" y="-6.5" font-family="Helvetica,sans-Serif" font-size="10.00">_clean_round</text>
</a>
</g>
</g>
<!-- Node2 -->
<g id="Node000002" class="node">
<title>Node2</title>
<g id="a_Node000002"><a xlink:href="namespacesrc_1_1predict__outcome.html#a4936cee5ea5beb99effbde74d9bd6159" target="_top" xlink:title=" ">
<polygon fill="white" stroke="#666666" points="296.75,-32 172.75,-32 172.75,0 296.75,0 296.75,-32"/>
<text text-anchor="start" x="180.75" y="-18.5" font-family="Helvetica,sans-Serif" font-size="10.00">src.predict_outcome.</text>
<text text-anchor="middle" x="234.75" y="-6.5" font-family="Helvetica,sans-Serif" font-size="10.00">_build_base_feature_row</text>
</a>
</g>
</g>
<!-- Node1&#45;&gt;Node2 -->
<g id="edge1_Node000001_Node000002" class="edge">
<title>Node1&#45;&gt;Node2</title>
<g id="a_edge1_Node000001_Node000002"><a xlink:title=" ">
<path fill="none" stroke="#63b8ff" d="M320.92,-16C313.06,-16 305.04,-16 297.23,-16"/>
<polygon fill="#63b8ff" stroke="#63b8ff" points="320.77,-19.5 330.77,-16 320.77,-12.5 320.77,-19.5"/>
</a>
</g>
</g>
<!-- Node3 -->
<g id="Node000003" class="node">
<title>Node3</title>
<g id="a_Node000003"><a xlink:href="namespacesrc_1_1predict__outcome.html#a06b76998ab42e6978b5540a05c624ac6" target="_top" xlink:title=" ">
<polygon fill="white" stroke="#666666" points="136.75,-32 0,-32 0,0 136.75,0 136.75,-32"/>
<text text-anchor="start" x="8" y="-18.5" font-family="Helvetica,sans-Serif" font-size="10.00">src.predict_outcome.predict</text>
<text text-anchor="middle" x="68.38" y="-6.5" font-family="Helvetica,sans-Serif" font-size="10.00">_outcome</text>
</a>
</g>
</g>
<!-- Node2&#45;&gt;Node3 -->
<g id="edge2_Node000002_Node000003" class="edge">
<title>Node2&#45;&gt;Node3</title>
<g id="a_edge2_Node000002_Node000003"><a xlink:title=" ">
<path fill="none" stroke="#63b8ff" d="M161.25,-16C153.18,-16 144.99,-16 136.98,-16"/>
<polygon fill="#63b8ff" stroke="#63b8ff" points="161.03,-19.5 171.03,-16 161.03,-12.5 161.03,-19.5"/>
</a>
</g>
</g>
</g>
</svg>
