<?xml version="1.0" encoding="UTF-8" standalone="no"?>
<!DOCTYPE svg PUBLIC "-//W3C//DTD SVG 1.1//EN"
 "http://www.w3.org/Graphics/SVG/1.1/DTD/svg11.dtd">
<!-- Generated by graphviz version 12.1.0 (20240811.2233)
 -->
<!-- Title: src.features_recent.add_recent_form_features Pages: 1 -->
<svg width="593pt" height="240pt"
 viewBox="0.00 0.00 592.50 240.00" xmlns="http://www.w3.org/2000/svg" xmlns:xlink="http://www.w3.org/1999/xlink">
<g id="graph0" class="graph" transform="scale(1 1) rotate(0) translate(4 236)">
<title>src.features_recent.add_recent_form_features</title>
<!-- Node1 -->
<g id="Node000001" class="node">
<title>Node1</title>
<g id="a_Node000001"><a xlink:title=" ">
<polygon fill="#999999" stroke="#666666" points="118.75,-107 0,-107 0,-75 118.75,-75 118.75,-107"/>
<text text-anchor="start" x="8" y="-93.5" font-family="Helvetica,sans-Serif" font-size="10.00">src.features_recent.add</text>
<text text-anchor="middle" x="59.38" y="-81.5" font-family="Helvetica,sans-Serif" font-size="10.00">_recent_form_features</text>
</a>
</g>
</g>
<!-- Node2 -->
<g id="Node000002" class="node">
<title>Node2</title>
<g id="a_Node000002"><a xlink:href="namespacesrc_1_1features__recent.html#af05a055fa7472e12e20b708184b6b3ff" target="_top" xlink:title=" ">
<polygon fill="white" stroke="#666666" points="272,-182 164.5,-182 164.5,-150 272,-150 272,-182"/>
<text text-anchor="start" x="172.5" y="-168.5" font-family="Helvetica,sans-Serif" font-size="10.00">src.features_recent.</text>
<text text-anchor="middle" x="218.25" y="-156.5" font-family="Helvetica,sans-Serif" font-size="10.00">_build_player_history</text>
</a>
</g>
</g>
<!-- Node1&#45;&gt;Node2 -->
<g id="edge1_Node000001_Node000002" class="edge">
<title>Node1&#45;&gt;Node2</title>
<g id="a_edge1_Node000001_Node000002"><a xlink:title=" ">
<path fill="none" stroke="#63b8ff" d="M89.3,-107.36C107.77,-117.54 132.37,-130.63 154.75,-141 157.68,-142.36 160.71,-143.72 163.78,-145.06"/>
<polygon fill="#63b8ff" stroke="#63b8ff" points="162.33,-148.24 172.9,-148.93 165.06,-141.8 162.33,-148.24"/>
</a>
</g>
</g>
<!-- Node7 -->
<g id="Node000007" class="node">
<title>Node7</title>
<g id="a_Node000007"><a xlink:href="namespacesrc_1_1features__recent.html#ad16cda452a9d854ec8b890ea8aeafd8b" target="_top" xlink:title=" ">
<polygon fill="white" stroke="#666666" points="277.25,-132 159.25,-132 159.25,-100 277.25,-100 277.25,-132"/>
<text text-anchor="start" x="167.25" y="-118.5" font-family="Helvetica,sans-Serif" font-size="10.00">src.features_recent.</text>
<text text-anchor="middle" x="218.25" y="-106.5" font-family="Helvetica,sans-Serif" font-size="10.00">_compute_recent_stats</text>
</a>
</g>
</g>
<!-- Node1&#45;&gt;Node7 -->
<g id="edge6_Node000001_Node000007" class="edge">
<title>Node1&#45;&gt;Node7</title>
<g id="a_edge6_Node000001_Node000007"><a xlink:title=" ">
<path fill="none" stroke="#63b8ff" d="M119.24,-100.38C128.55,-101.86 138.25,-103.41 147.78,-104.93"/>
<polygon fill="#63b8ff" stroke="#63b8ff" points="146.92,-108.34 157.35,-106.45 148.02,-101.42 146.92,-108.34"/>
</a>
</g>
</g>
<!-- Node8 -->
<g id="Node000008" class="node">
<title>Node8</title>
<g id="a_Node000008"><a xlink:href="namespacesrc_1_1features__recent.html#aac06681ecd5c0b49ff94ec7aaea75c4e" target="_top" xlink:title=" ">
<polygon fill="white" stroke="#666666" points="269.75,-82 166.75,-82 166.75,-50 269.75,-50 269.75,-82"/>
<text text-anchor="start" x="174.75" y="-68.5" font-family="Helvetica,sans-Serif" font-size="10.00">src.features_recent.</text>
<text text-anchor="middle" x="218.25" y="-56.5" font-family="Helvetica,sans-Serif" font-size="10.00">_diff_or_nan</text>
</a>
</g>
</g>
<!-- Node1&#45;&gt;Node8 -->
<g id="edge7_Node000001_Node000008" class="edge">
<title>Node1&#45;&gt;Node8</title>
<g id="a_edge7_Node000001_Node000008"><a xlink:title=" ">
<path fill="none" stroke="#63b8ff" d="M119.24,-81.62C130.96,-79.75 143.31,-77.78 155.15,-75.9"/>
<polygon fill="#63b8ff" stroke="#63b8ff" points="155.48,-79.39 164.8,-74.36 154.37,-72.48 155.48,-79.39"/>
</a>
</g>
</g>
<!-- Node9 -->
<g id="Node000009" class="node">
<title>Node9</title>
<g id="a_Node000009"><a xlink:href="namespacesrc_1_1features__recent.html#a78b3297ee51e2e2514491f762416826c" target="_top" xlink:title=" ">
<polygon fill="white" stroke="#666666" points="281.75,-32 154.75,-32 154.75,0 281.75,0 281.75,-32"/>
<text text-anchor="start" x="162.75" y="-18.5" font-family="Helvetica,sans-Serif" font-size="10.00">src.features_recent.</text>
<text text-anchor="middle" x="218.25" y="-6.5" font-family="Helvetica,sans-Serif" font-size="10.00">_group_history_by_player</text>
</a>
</g>
</g>
<!-- Node1&#45;&gt;Node9 -->
<g id="edge8_Node000001_Node000009" class="edge">
<title>Node1&#45;&gt;Node9</title>
<g id="a_edge8_Node000001_Node000009"><a xlink:title=" ">
<path fill="none" stroke="#63b8ff" d="M89.3,-74.64C107.77,-64.46 132.37,-51.37 154.75,-41 157.68,-39.64 160.71,-38.28 163.78,-36.94"/>
<polygon fill="#63b8ff" stroke="#63b8ff" points="165.06,-40.2 172.9,-33.07 162.33,-33.76 165.06,-40.2"/>
</a>
</g>
</g>
<!-- Node3 -->
<g id="Node000003" class="node">
<title>Node3</title>
<g id="a_Node000003"><a xlink:href="namespacesrc_1_1features__recent.html#a547b090794846a9102869acc3dad6976" target="_top" xlink:title=" ">
<polygon fill="white" stroke="#666666" points="423,-182 317.75,-182 317.75,-150 423,-150 423,-182"/>
<text text-anchor="start" x="325.75" y="-168.5" font-family="Helvetica,sans-Serif" font-size="10.00">src.features_recent.</text>
<text text-anchor="middle" x="370.38" y="-156.5" font-family="Helvetica,sans-Serif" font-size="10.00">_build_player_record</text>
</a>
</g>
</g>
<!-- Node2&#45;&gt;Node3 -->
<g id="edge2_Node000002_Node000003" class="edge">
<title>Node2&#45;&gt;Node3</title>
<g id="a_edge2_Node000002_Node000003"><a xlink:title=" ">
<path fill="none" stroke="#63b8ff" d="M272.18,-166C283.19,-166 294.91,-166 306.25,-166"/>
<polygon fill="#63b8ff" stroke="#63b8ff" points="305.92,-169.5 315.92,-166 305.92,-162.5 305.92,-169.5"/>
</a>
</g>
</g>
<!-- Node4 -->
<g id="Node000004" class="node">
<title>Node4</title>
<g id="a_Node000004"><a xlink:href="namespacesrc_1_1features__recent.html#abf849ca46d43812427a8ef0358b731ef" target="_top" xlink:title=" ">
<polygon fill="white" stroke="#666666" points="573.25,-232 470.25,-232 470.25,-200 573.25,-200 573.25,-232"/>
<text text-anchor="start" x="478.25" y="-218.5" font-family="Helvetica,sans-Serif" font-size="10.00">src.features_recent.</text>
<text text-anchor="middle" x="521.75" y="-206.5" font-family="Helvetica,sans-Serif" font-size="10.00">_safe_player_id</text>
</a>
</g>
</g>
<!-- Node3&#45;&gt;Node4 -->
<g id="edge3_Node000003_Node000004" class="edge">
<title>Node3&#45;&gt;Node4</title>
<g id="a_edge3_Node000003_Node000004"><a xlink:title=" ">
<path fill="none" stroke="#63b8ff" d="M420.29,-182.37C433.24,-186.71 447.38,-191.44 460.85,-195.95"/>
<polygon fill="#63b8ff" stroke="#63b8ff" points="459.44,-199.17 470.04,-199.03 461.67,-192.53 459.44,-199.17"/>
</a>
</g>
</g>
<!-- Node5 -->
<g id="Node000005" class="node">
<title>Node5</title>
<g id="a_Node000005"><a xlink:href="namespacesrc_1_1features__recent.html#a56f9acf54418d24c31eaf53f0d19c800" target="_top" xlink:title=" ">
<polygon fill="white" stroke="#666666" points="573.25,-182 470.25,-182 470.25,-150 573.25,-150 573.25,-182"/>
<text text-anchor="start" x="478.25" y="-168.5" font-family="Helvetica,sans-Serif" font-size="10.00">src.features_recent.</text>
<text text-anchor="middle" x="521.75" y="-156.5" font-family="Helvetica,sans-Serif" font-size="10.00">_safe_ratio</text>
</a>
</g>
</g>
<!-- Node3&#45;&gt;Node5 -->
<g id="edge4_Node000003_Node000005" class="edge">
<title>Node3&#45;&gt;Node5</title>
<g id="a_edge4_Node000003_Node000005"><a xlink:title=" ">
<path fill="none" stroke="#63b8ff" d="M423.2,-166C434.51,-166 446.6,-166 458.28,-166"/>
<polygon fill="#63b8ff" stroke="#63b8ff" points="458.26,-169.5 468.26,-166 458.26,-162.5 458.26,-169.5"/>
</a>
</g>
</g>
<!-- Node6 -->
<g id="Node000006" class="node">
<title>Node6</title>
<g id="a_Node000006"><a xlink:href="namespacesrc_1_1features__recent.html#ac4f581f479bf2f1e89abeaddabe359fe" target="_top" xlink:title=" ">
<polygon fill="white" stroke="#666666" points="584.5,-132 459,-132 459,-100 584.5,-100 584.5,-132"/>
<text text-anchor="start" x="467" y="-118.5" font-family="Helvetica,sans-Serif" font-size="10.00">src.features_recent.</text>
<text text-anchor="middle" x="521.75" y="-106.5" font-family="Helvetica,sans-Serif" font-size="10.00">_second_serve_attempts</text>
</a>
</g>
</g>
<!-- Node3&#45;&gt;Node6 -->
<g id="edge5_Node000003_Node000006" class="edge">
<title>Node3&#45;&gt;Node6</title>
<g id="a_edge5_Node000003_Node000006"><a xlink:title=" ">
<path fill="none" stroke="#63b8ff" d="M420.29,-149.63C433.24,-145.29 447.38,-140.56 460.85,-136.05"/>
<polygon fill="#63b8ff" stroke="#63b8ff" points="461.67,-139.47 470.04,-132.97 459.44,-132.83 461.67,-139.47"/>
</a>
</g>
</g>
</g>
</svg>
