<?xml version="1.0" encoding="UTF-8" standalone="no"?>
<!DOCTYPE svg PUBLIC "-//W3C//DTD SVG 1.1//EN"
 "http://www.w3.org/Graphics/SVG/1.1/DTD/svg11.dtd">
<!-- Generated by graphviz version 12.1.0 (20240811.2233)
 -->
<!-- Title: src.train_outcome.init_classifier Pages: 1 -->
<svg width="424pt" height="40pt"
 viewBox="0.00 0.00 423.50 40.00" xmlns="http://www.w3.org/2000/svg" xmlns:xlink="http://www.w3.org/1999/xlink">
<g id="graph0" class="graph" transform="scale(1 1) rotate(0) translate(4 36)">
<title>src.train_outcome.init_classifier</title>
<!-- Node1 -->
<g id="Node000001" class="node">
<title>Node1</title>
<g id="a_Node000001"><a xlink:title=" ">
<polygon fill="#999999" stroke="#666666" points="415.5,-32 305.75,-32 305.75,0 415.5,0 415.5,-32"/>
<text text-anchor="start" x="313.75" y="-18.5" font-family="Helvetica,sans-Serif" font-size="10.00">src.train_outcome.init</text>
<text text-anchor="middle" x="360.62" y="-6.5" font-family="Helvetica,sans-Serif" font-size="10.00">_classifier</text>
</a>
</g>
</g>
<!-- Node2 -->
<g id="Node000002" class="node">
<title>Node2</title>
<g id="a_Node000002"><a xlink:href="namespacesrc_1_1train__outcome.html#a0b59cfd4f81532d4f34e2c1421130d0e" target="_top" xlink:title=" ">
<polygon fill="white" stroke="#666666" points="269.75,-32 154,-32 154,0 269.75,0 269.75,-32"/>
<text text-anchor="start" x="162" y="-18.5" font-family="Helvetica,sans-Serif" font-size="10.00">src.train_outcome.train</text>
<text text-anchor="middle" x="211.88" y="-6.5" font-family="Helvetica,sans-Serif" font-size="10.00">_pipeline</text>
</a>
</g>
</g>
<!-- Node1&#45;&gt;Node2 -->
<g id="edge1_Node000001_Node000002" class="edge">
<title>Node1&#45;&gt;Node2</title>
<g id="a_edge1_Node000001_Node000002"><a xlink:title=" ">
<path fill="none" stroke="#63b8ff" d="M294.09,-16C286,-16 277.78,-16 269.83,-16"/>
<polygon fill="#63b8ff" stroke="#63b8ff" points="293.88,-19.5 303.88,-16 293.88,-12.5 293.88,-19.5"/>
</a>
</g>
</g>
<!-- Node3 -->
<g id="Node000003" class="node">
<title>Node3</title>
<g id="a_Node000003"><a xlink:href="namespacesrc_1_1train__outcome.html#a5f3321b79ef6ba14c56d7ba0b83e402d" target="_top" xlink:title=" ">
<polygon fill="white" stroke="#666666" points="118,-26 0,-26 0,-6 118,-6 118,-26"/>
<text text-anchor="middle" x="59" y="-12.5" font-family="Helvetica,sans-Serif" font-size="10.00">src.train_outcome.main</text>
</a>
</g>
</g>
<!-- Node2&#45;&gt;Node3 -->
<g id="edge2_Node000002_Node000003" class="edge">
<title>Node2&#45;&gt;Node3</title>
<g id="a_edge2_Node000002_Node000003"><a xlink:title=" ">
<path fill="none" stroke="#63b8ff" d="M142.54,-16C134.47,-16 126.29,-16 118.37,-16"/>
<polygon fill="#63b8ff" stroke="#63b8ff" points="142.32,-19.5 152.32,-16 142.32,-12.5 142.32,-19.5"/>
</a>
</g>
</g>
</g>
</svg>
