<?xml version="1.0" encoding="UTF-8" standalone="no"?>
<!DOCTYPE svg PUBLIC "-//W3C//DTD SVG 1.1//EN"
 "http://www.w3.org/Graphics/SVG/1.1/DTD/svg11.dtd">
<!-- Generated by graphviz version 12.1.0 (20240811.2233)
 -->
<!-- Title: src.predict_outcome._safe_int Pages: 1 -->
<svg width="613pt" height="62pt"
 viewBox="0.00 0.00 612.75 62.00" xmlns="http://www.w3.org/2000/svg" xmlns:xlink="http://www.w3.org/1999/xlink">
<g id="graph0" class="graph" transform="scale(1 1) rotate(0) translate(4 58)">
<title>src.predict_outcome._safe_int</title>
<!-- Node1 -->
<g id="Node000001" class="node">
<title>Node1</title>
<g id="a_Node000001"><a xlink:title=" ">
<polygon fill="#999999" stroke="#666666" points="604.75,-32 497.25,-32 497.25,0 604.75,0 604.75,-32"/>
<text text-anchor="start" x="505.25" y="-18.5" font-family="Helvetica,sans-Serif" font-size="10.00">src.predict_outcome.</text>
<text text-anchor="middle" x="551" y="-6.5" font-family="Helvetica,sans-Serif" font-size="10.00">_safe_int</text>
</a>
</g>
</g>
<!-- Node2 -->
<g id="Node000002" class="node">
<title>Node2</title>
<g id="a_Node000002"><a xlink:href="namespacesrc_1_1predict__outcome.html#a3ce9a1a9e05e00b17b2e9a5ff9c5341a" target="_top" xlink:title=" ">
<polygon fill="white" stroke="#666666" points="461.25,-54 316.25,-54 316.25,-22 461.25,-22 461.25,-54"/>
<text text-anchor="start" x="324.25" y="-40.5" font-family="Helvetica,sans-Serif" font-size="10.00">src.predict_outcome.</text>
<text text-anchor="middle" x="388.75" y="-28.5" font-family="Helvetica,sans-Serif" font-size="10.00">_infer_best_of_from_matches</text>
</a>
</g>
</g>
<!-- Node1&#45;&gt;Node2 -->
<g id="edge1_Node000001_Node000002" class="edge">
<title>Node1&#45;&gt;Node2</title>
<g id="a_edge1_Node000001_Node000002"><a xlink:title=" ">
<path fill="none" stroke="#63b8ff" d="M485.91,-24.8C477.88,-25.9 469.62,-27.03 461.48,-28.15"/>
<polygon fill="#63b8ff" stroke="#63b8ff" points="486.15,-28.3 495.58,-23.47 485.2,-21.36 486.15,-28.3"/>
</a>
</g>
</g>
<!-- Node3 -->
<g id="Node000003" class="node">
<title>Node3</title>
<g id="a_Node000003"><a xlink:href="namespacesrc_1_1predict__outcome.html#aea83edb36dc13faab680b734ad9fc61a" target="_top" xlink:title=" ">
<polygon fill="white" stroke="#666666" points="280.25,-32 172.75,-32 172.75,0 280.25,0 280.25,-32"/>
<text text-anchor="start" x="180.75" y="-18.5" font-family="Helvetica,sans-Serif" font-size="10.00">src.predict_outcome.</text>
<text text-anchor="middle" x="226.5" y="-6.5" font-family="Helvetica,sans-Serif" font-size="10.00">_resolve_best_of</text>
</a>
</g>
</g>
<!-- Node1&#45;&gt;Node3 -->
<g id="edge4_Node000001_Node000003" class="edge">
<title>Node1&#45;&gt;Node3</title>
<g id="a_edge4_Node000001_Node000003"><a xlink:title=" ">
<path fill="none" stroke="#63b8ff" d="M485.53,-13.56C477.36,-13.33 469.11,-13.13 461.25,-13 396.81,-11.91 380.69,-11.91 316.25,-13 304.69,-13.2 292.28,-13.53 280.52,-13.91"/>
<polygon fill="#63b8ff" stroke="#63b8ff" points="485.36,-17.06 495.46,-13.87 485.58,-10.06 485.36,-17.06"/>
</a>
</g>
</g>
<!-- Node2&#45;&gt;Node3 -->
<g id="edge2_Node000002_Node000003" class="edge">
<title>Node2&#45;&gt;Node3</title>
<g id="a_edge2_Node000002_Node000003"><a xlink:title=" ">
<path fill="none" stroke="#63b8ff" d="M304.77,-26.61C296.48,-25.47 288.24,-24.34 280.39,-23.26"/>
<polygon fill="#63b8ff" stroke="#63b8ff" points="304.18,-30.06 314.56,-27.95 305.13,-23.12 304.18,-30.06"/>
</a>
</g>
</g>
<!-- Node4 -->
<g id="Node000004" class="node">
<title>Node4</title>
<g id="a_Node000004"><a xlink:href="namespacesrc_1_1predict__outcome.html#a06b76998ab42e6978b5540a05c624ac6" target="_top" xlink:title=" ">
<polygon fill="white" stroke="#666666" points="136.75,-32 0,-32 0,0 136.75,0 136.75,-32"/>
<text text-anchor="start" x="8" y="-18.5" font-family="Helvetica,sans-Serif" font-size="10.00">src.predict_outcome.predict</text>
<text text-anchor="middle" x="68.38" y="-6.5" font-family="Helvetica,sans-Serif" font-size="10.00">_outcome</text>
</a>
</g>
</g>
<!-- Node3&#45;&gt;Node4 -->
<g id="edge3_Node000003_Node000004" class="edge">
<title>Node3&#45;&gt;Node4</title>
<g id="a_edge3_Node000003_Node000004"><a xlink:title=" ">
<path fill="none" stroke="#63b8ff" d="M161.19,-16C153.25,-16 145.11,-16 137.12,-16"/>
<polygon fill="#63b8ff" stroke="#63b8ff" points="161.13,-19.5 171.13,-16 161.13,-12.5 161.13,-19.5"/>
</a>
</g>
</g>
</g>
</svg>
