<?xml version="1.0" encoding="UTF-8" standalone="no"?>
<!DOCTYPE svg PUBLIC "-//W3C//DTD SVG 1.1//EN"
 "http://www.w3.org/Graphics/SVG/1.1/DTD/svg11.dtd">
<!-- Generated by graphviz version 12.1.0 (20240811.2233)
 -->
<!-- Title: src.build_dataset.parse_date_like Pages: 1 -->
<svg width="467pt" height="62pt"
 viewBox="0.00 0.00 467.00 62.00" xmlns="http://www.w3.org/2000/svg" xmlns:xlink="http://www.w3.org/1999/xlink">
<g id="graph0" class="graph" transform="scale(1 1) rotate(0) translate(4 58)">
<title>src.build_dataset.parse_date_like</title>
<!-- Node1 -->
<g id="Node000001" class="node">
<title>Node1</title>
<g id="a_Node000001"><a xlink:title=" ">
<polygon fill="#999999" stroke="#666666" points="459,-54 341.75,-54 341.75,-22 459,-22 459,-54"/>
<text text-anchor="start" x="349.75" y="-40.5" font-family="Helvetica,sans-Serif" font-size="10.00">src.build_dataset.parse</text>
<text text-anchor="middle" x="400.38" y="-28.5" font-family="Helvetica,sans-Serif" font-size="10.00">_date_like</text>
</a>
</g>
</g>
<!-- Node2 -->
<g id="Node000002" class="node">
<title>Node2</title>
<g id="a_Node000002"><a xlink:href="namespacesrc_1_1build__dataset.html#aaca54296e0b33e26a3209f4df0b31b9c" target="_top" xlink:title=" ">
<polygon fill="white" stroke="#666666" points="163,-48 0,-48 0,-28 163,-28 163,-48"/>
<text text-anchor="middle" x="81.5" y="-34.5" font-family="Helvetica,sans-Serif" font-size="10.00">src.build_dataset.canonicalize_ab</text>
</a>
</g>
</g>
<!-- Node1&#45;&gt;Node2 -->
<g id="edge1_Node000001_Node000002" class="edge">
<title>Node1&#45;&gt;Node2</title>
<g id="a_edge1_Node000001_Node000002"><a xlink:title=" ">
<path fill="none" stroke="#63b8ff" d="M329.98,-40.47C321.81,-40.69 313.6,-40.87 305.75,-41 258.31,-41.76 246.44,-41.61 199,-41 187.47,-40.85 175.3,-40.62 163.34,-40.35"/>
<polygon fill="#63b8ff" stroke="#63b8ff" points="330.04,-43.97 339.93,-40.19 329.84,-36.97 330.04,-43.97"/>
</a>
</g>
</g>
<!-- Node3 -->
<g id="Node000003" class="node">
<title>Node3</title>
<g id="a_Node000003"><a xlink:href="namespacesrc_1_1build__dataset.html#a152e670d9eb1b48ddb7160e48d90ad6e" target="_top" xlink:title=" ">
<polygon fill="white" stroke="#666666" points="305.75,-32 199,-32 199,0 305.75,0 305.75,-32"/>
<text text-anchor="start" x="207" y="-18.5" font-family="Helvetica,sans-Serif" font-size="10.00">src.build_dataset.get</text>
<text text-anchor="middle" x="252.38" y="-6.5" font-family="Helvetica,sans-Serif" font-size="10.00">_rank_on_or_before</text>
</a>
</g>
</g>
<!-- Node1&#45;&gt;Node3 -->
<g id="edge2_Node000001_Node000003" class="edge">
<title>Node1&#45;&gt;Node3</title>
<g id="a_edge2_Node000001_Node000003"><a xlink:title=" ">
<path fill="none" stroke="#63b8ff" d="M329.98,-27.54C321.94,-26.33 313.85,-25.11 306.09,-23.94"/>
<polygon fill="#63b8ff" stroke="#63b8ff" points="329.35,-30.99 339.76,-29.02 330.39,-24.07 329.35,-30.99"/>
</a>
</g>
</g>
<!-- Node3&#45;&gt;Node2 -->
<g id="edge3_Node000003_Node000002" class="edge">
<title>Node3&#45;&gt;Node2</title>
<g id="a_edge3_Node000003_Node000002"><a xlink:title=" ">
<path fill="none" stroke="#63b8ff" d="M187.64,-24.3C179.55,-25.36 171.19,-26.45 162.88,-27.53"/>
<polygon fill="#63b8ff" stroke="#63b8ff" points="187.9,-27.8 197.37,-23.04 187,-20.86 187.9,-27.8"/>
</a>
</g>
</g>
</g>
</svg>
