<?xml version="1.0" encoding="UTF-8" standalone="no"?>
<!DOCTYPE svg PUBLIC "-//W3C//DTD SVG 1.1//EN"
 "http://www.w3.org/Graphics/SVG/1.1/DTD/svg11.dtd">
<!-- Generated by graphviz version 12.1.0 (20240811.2233)
 -->
<!-- Title: src.features_recent._build_player_history Pages: 1 -->
<svg width="418pt" height="140pt"
 viewBox="0.00 0.00 418.25 140.00" xmlns="http://www.w3.org/2000/svg" xmlns:xlink="http://www.w3.org/1999/xlink">
<g id="graph0" class="graph" transform="scale(1 1) rotate(0) translate(4 136)">
<title>src.features_recent._build_player_history</title>
<!-- Node1 -->
<g id="Node000001" class="node">
<title>Node1</title>
<g id="a_Node000001"><a xlink:title=" ">
<polygon fill="#999999" stroke="#666666" points="107.5,-82 0,-82 0,-50 107.5,-50 107.5,-82"/>
<text text-anchor="start" x="8" y="-68.5" font-family="Helvetica,sans-Serif" font-size="10.00">src.features_recent.</text>
<text text-anchor="middle" x="53.75" y="-56.5" font-family="Helvetica,sans-Serif" font-size="10.00">_build_player_history</text>
</a>
</g>
</g>
<!-- Node2 -->
<g id="Node000002" class="node">
<title>Node2</title>
<g id="a_Node000002"><a xlink:href="namespacesrc_1_1features__recent.html#a547b090794846a9102869acc3dad6976" target="_top" xlink:title=" ">
<polygon fill="white" stroke="#666666" points="248.75,-82 143.5,-82 143.5,-50 248.75,-50 248.75,-82"/>
<text text-anchor="start" x="151.5" y="-68.5" font-family="Helvetica,sans-Serif" font-size="10.00">src.features_recent.</text>
<text text-anchor="middle" x="196.12" y="-56.5" font-family="Helvetica,sans-Serif" font-size="10.00">_build_player_record</text>
</a>
</g>
</g>
<!-- Node1&#45;&gt;Node2 -->
<g id="edge1_Node000001_Node000002" class="edge">
<title>Node1&#45;&gt;Node2</title>
<g id="a_edge1_Node000001_Node000002"><a xlink:title=" ">
<path fill="none" stroke="#63b8ff" d="M107.82,-66C115.74,-66 123.96,-66 132.06,-66"/>
<polygon fill="#63b8ff" stroke="#63b8ff" points="131.86,-69.5 141.86,-66 131.86,-62.5 131.86,-69.5"/>
</a>
</g>
</g>
<!-- Node3 -->
<g id="Node000003" class="node">
<title>Node3</title>
<g id="a_Node000003"><a xlink:href="namespacesrc_1_1features__recent.html#abf849ca46d43812427a8ef0358b731ef" target="_top" xlink:title=" ">
<polygon fill="white" stroke="#666666" points="399,-132 296,-132 296,-100 399,-100 399,-132"/>
<text text-anchor="start" x="304" y="-118.5" font-family="Helvetica,sans-Serif" font-size="10.00">src.features_recent.</text>
<text text-anchor="middle" x="347.5" y="-106.5" font-family="Helvetica,sans-Serif" font-size="10.00">_safe_player_id</text>
</a>
</g>
</g>
<!-- Node2&#45;&gt;Node3 -->
<g id="edge2_Node000002_Node000003" class="edge">
<title>Node2&#45;&gt;Node3</title>
<g id="a_edge2_Node000002_Node000003"><a xlink:title=" ">
<path fill="none" stroke="#63b8ff" d="M246.04,-82.37C258.99,-86.71 273.13,-91.44 286.6,-95.95"/>
<polygon fill="#63b8ff" stroke="#63b8ff" points="285.19,-99.17 295.79,-99.03 287.42,-92.53 285.19,-99.17"/>
</a>
</g>
</g>
<!-- Node4 -->
<g id="Node000004" class="node">
<title>Node4</title>
<g id="a_Node000004"><a xlink:href="namespacesrc_1_1features__recent.html#a56f9acf54418d24c31eaf53f0d19c800" target="_top" xlink:title=" ">
<polygon fill="white" stroke="#666666" points="399,-82 296,-82 296,-50 399,-50 399,-82"/>
<text text-anchor="start" x="304" y="-68.5" font-family="Helvetica,sans-Serif" font-size="10.00">src.features_recent.</text>
<text text-anchor="middle" x="347.5" y="-56.5" font-family="Helvetica,sans-Serif" font-size="10.00">_safe_ratio</text>
</a>
</g>
</g>
<!-- Node2&#45;&gt;Node4 -->
<g id="edge3_Node000002_Node000004" class="edge">
<title>Node2&#45;&gt;Node4</title>
<g id="a_edge3_Node000002_Node000004"><a xlink:title=" ">
<path fill="none" stroke="#63b8ff" d="M248.95,-66C260.26,-66 272.35,-66 284.03,-66"/>
<polygon fill="#63b8ff" stroke="#63b8ff" points="284.01,-69.5 294.01,-66 284.01,-62.5 284.01,-69.5"/>
</a>
</g>
</g>
<!-- Node5 -->
<g id="Node000005" class="node">
<title>Node5</title>
<g id="a_Node000005"><a xlink:href="namespacesrc_1_1features__recent.html#ac4f581f479bf2f1e89abeaddabe359fe" target="_top" xlink:title=" ">
<polygon fill="white" stroke="#666666" points="410.25,-32 284.75,-32 284.75,0 410.25,0 410.25,-32"/>
<text text-anchor="start" x="292.75" y="-18.5" font-family="Helvetica,sans-Serif" font-size="10.00">src.features_recent.</text>
<text text-anchor="middle" x="347.5" y="-6.5" font-family="Helvetica,sans-Serif" font-size="10.00">_second_serve_attempts</text>
</a>
</g>
</g>
<!-- Node2&#45;&gt;Node5 -->
<g id="edge4_Node000002_Node000005" class="edge">
<title>Node2&#45;&gt;Node5</title>
<g id="a_edge4_Node000002_Node000005"><a xlink:title=" ">
<path fill="none" stroke="#63b8ff" d="M246.04,-49.63C258.99,-45.29 273.13,-40.56 286.6,-36.05"/>
<polygon fill="#63b8ff" stroke="#63b8ff" points="287.42,-39.47 295.79,-32.97 285.19,-32.83 287.42,-39.47"/>
</a>
</g>
</g>
</g>
</svg>
