<?xml version="1.0" encoding="UTF-8" standalone="no"?>
<!DOCTYPE svg PUBLIC "-//W3C//DTD SVG 1.1//EN"
 "http://www.w3.org/Graphics/SVG/1.1/DTD/svg11.dtd">
<!-- Generated by graphviz version 12.1.0 (20240811.2233)
 -->
<!-- Title: src.tiebreaker_cli.best_name_match Pages: 1 -->
<svg width="453pt" height="78pt"
 viewBox="0.00 0.00 452.75 78.00" xmlns="http://www.w3.org/2000/svg" xmlns:xlink="http://www.w3.org/1999/xlink">
<g id="graph0" class="graph" transform="scale(1 1) rotate(0) translate(4 74)">
<title>src.tiebreaker_cli.best_name_match</title>
<!-- Node1 -->
<g id="Node000001" class="node">
<title>Node1</title>
<g id="a_Node000001"><a xlink:title=" ">
<polygon fill="#999999" stroke="#666666" points="444.75,-48 332.75,-48 332.75,-16 444.75,-16 444.75,-48"/>
<text text-anchor="start" x="340.75" y="-34.5" font-family="Helvetica,sans-Serif" font-size="10.00">src.tiebreaker_cli.best</text>
<text text-anchor="middle" x="388.75" y="-22.5" font-family="Helvetica,sans-Serif" font-size="10.00">_name_match</text>
</a>
</g>
</g>
<!-- Node2 -->
<g id="Node000002" class="node">
<title>Node2</title>
<g id="a_Node000002"><a xlink:href="namespacesrc_1_1tiebreaker__cli.html#a9e39c2d716fb4e33d95db178a1ee1d67" target="_top" xlink:title=" ">
<polygon fill="white" stroke="#666666" points="296.75,-48 172,-48 172,-16 296.75,-16 296.75,-48"/>
<text text-anchor="start" x="180" y="-34.5" font-family="Helvetica,sans-Serif" font-size="10.00">src.tiebreaker_cli.resolve</text>
<text text-anchor="middle" x="234.38" y="-22.5" font-family="Helvetica,sans-Serif" font-size="10.00">_player_id</text>
</a>
</g>
</g>
<!-- Node1&#45;&gt;Node2 -->
<g id="edge1_Node000001_Node000002" class="edge">
<title>Node1&#45;&gt;Node2</title>
<g id="a_edge1_Node000001_Node000002"><a xlink:title=" ">
<path fill="none" stroke="#63b8ff" d="M320.91,-32C313.03,-32 305.02,-32 297.22,-32"/>
<polygon fill="#63b8ff" stroke="#63b8ff" points="320.79,-35.5 330.79,-32 320.79,-28.5 320.79,-35.5"/>
</a>
</g>
</g>
<!-- Node3 -->
<g id="Node000003" class="node">
<title>Node3</title>
<g id="a_Node000003"><a xlink:href="namespacesrc_1_1tiebreaker__cli.html#a0bf383eb6dbc620ae6e1d34ed7d6cfb4" target="_top" xlink:title=" ">
<polygon fill="white" stroke="#666666" points="124,-70 12,-70 12,-38 124,-38 124,-70"/>
<text text-anchor="start" x="20" y="-56.5" font-family="Helvetica,sans-Serif" font-size="10.00">src.tiebreaker_cli.cmd</text>
<text text-anchor="middle" x="68" y="-44.5" font-family="Helvetica,sans-Serif" font-size="10.00">_match</text>
</a>
</g>
</g>
<!-- Node2&#45;&gt;Node3 -->
<g id="edge2_Node000002_Node000003" class="edge">
<title>Node2&#45;&gt;Node3</title>
<g id="a_edge2_Node000002_Node000003"><a xlink:title=" ">
<path fill="none" stroke="#63b8ff" d="M160.61,-41.74C148.4,-43.37 135.92,-45.04 124.26,-46.6"/>
<polygon fill="#63b8ff" stroke="#63b8ff" points="160.75,-45.25 170.2,-40.46 159.82,-38.31 160.75,-45.25"/>
</a>
</g>
</g>
<!-- Node4 -->
<g id="Node000004" class="node">
<title>Node4</title>
<g id="a_Node000004"><a xlink:href="namespacesrc_1_1tiebreaker__cli.html#ab8e6cc46a7b9e9385b761755a4ded974" target="_top" xlink:title=" ">
<polygon fill="white" stroke="#666666" points="136,-20 0,-20 0,0 136,0 136,-20"/>
<text text-anchor="middle" x="68" y="-6.5" font-family="Helvetica,sans-Serif" font-size="10.00">src.tiebreaker_cli.cmd_rank</text>
</a>
</g>
</g>
<!-- Node2&#45;&gt;Node4 -->
<g id="edge3_Node000002_Node000004" class="edge">
<title>Node2&#45;&gt;Node4</title>
<g id="a_edge3_Node000002_Node000004"><a xlink:title=" ">
<path fill="none" stroke="#63b8ff" d="M160.44,-22.24C152.39,-21.16 144.23,-20.07 136.25,-19"/>
<polygon fill="#63b8ff" stroke="#63b8ff" points="159.82,-25.69 170.2,-23.54 160.75,-18.75 159.82,-25.69"/>
</a>
</g>
</g>
</g>
</svg>
