<?xml version="1.0" encoding="UTF-8" standalone="no"?>
<!DOCTYPE svg PUBLIC "-//W3C//DTD SVG 1.1//EN"
 "http://www.w3.org/Graphics/SVG/1.1/DTD/svg11.dtd">
<!-- Generated by graphviz version 12.1.0 (20240811.2233)
 -->
<!-- Title: src.features_recent._safe_ratio Pages: 1 -->
<svg width="551pt" height="40pt"
 viewBox="0.00 0.00 550.50 40.00" xmlns="http://www.w3.org/2000/svg" xmlns:xlink="http://www.w3.org/1999/xlink">
<g id="graph0" class="graph" transform="scale(1 1) rotate(0) translate(4 36)">
<title>src.features_recent._safe_ratio</title>
<!-- Node1 -->
<g id="Node000001" class="node">
<title>Node1</title>
<g id="a_Node000001"><a xlink:title=" ">
<polygon fill="#999999" stroke="#666666" points="542.5,-32 439.5,-32 439.5,0 542.5,0 542.5,-32"/>
<text text-anchor="start" x="447.5" y="-18.5" font-family="Helvetica,sans-Serif" font-size="10.00">src.features_recent.</text>
<text text-anchor="middle" x="491" y="-6.5" font-family="Helvetica,sans-Serif" font-size="10.00">_safe_ratio</text>
</a>
</g>
</g>
<!-- Node2 -->
<g id="Node000002" class="node">
<title>Node2</title>
<g id="a_Node000002"><a xlink:href="namespacesrc_1_1features__recent.html#a547b090794846a9102869acc3dad6976" target="_top" xlink:title=" ">
<polygon fill="white" stroke="#666666" points="403.5,-32 298.25,-32 298.25,0 403.5,0 403.5,-32"/>
<text text-anchor="start" x="306.25" y="-18.5" font-family="Helvetica,sans-Serif" font-size="10.00">src.features_recent.</text>
<text text-anchor="middle" x="350.88" y="-6.5" font-family="Helvetica,sans-Serif" font-size="10.00">_build_player_record</text>
</a>
</g>
</g>
<!-- Node1&#45;&gt;Node2 -->
<g id="edge1_Node000001_Node000002" class="edge">
<title>Node1&#45;&gt;Node2</title>
<g id="a_edge1_Node000001_Node000002"><a xlink:title=" ">
<path fill="none" stroke="#63b8ff" d="M428.07,-16C420,-16 411.79,-16 403.91,-16"/>
<polygon fill="#63b8ff" stroke="#63b8ff" points="427.84,-19.5 437.84,-16 427.84,-12.5 427.84,-19.5"/>
</a>
</g>
</g>
<!-- Node3 -->
<g id="Node000003" class="node">
<title>Node3</title>
<g id="a_Node000003"><a xlink:href="namespacesrc_1_1features__recent.html#af05a055fa7472e12e20b708184b6b3ff" target="_top" xlink:title=" ">
<polygon fill="white" stroke="#666666" points="262.25,-32 154.75,-32 154.75,0 262.25,0 262.25,-32"/>
<text text-anchor="start" x="162.75" y="-18.5" font-family="Helvetica,sans-Serif" font-size="10.00">src.features_recent.</text>
<text text-anchor="middle" x="208.5" y="-6.5" font-family="Helvetica,sans-Serif" font-size="10.00">_build_player_history</text>
</a>
</g>
</g>
<!-- Node2&#45;&gt;Node3 -->
<g id="edge2_Node000002_Node000003" class="edge">
<title>Node2&#45;&gt;Node3</title>
<g id="a_edge2_Node000002_Node000003"><a xlink:title=" ">
<path fill="none" stroke="#63b8ff" d="M286.72,-16C278.65,-16 270.46,-16 262.57,-16"/>
<polygon fill="#63b8ff" stroke="#63b8ff" points="286.49,-19.5 296.49,-16 286.49,-12.5 286.49,-19.5"/>
</a>
</g>
</g>
<!-- Node4 -->
<g id="Node000004" class="node">
<title>Node4</title>
<g id="a_Node000004"><a xlink:href="namespacesrc_1_1features__recent.html#a9f66f2c2126ec22b1542f708eb4cbacf" target="_top" xlink:title=" ">
<polygon fill="white" stroke="#666666" points="118.75,-32 0,-32 0,0 118.75,0 118.75,-32"/>
<text text-anchor="start" x="8" y="-18.5" font-family="Helvetica,sans-Serif" font-size="10.00">src.features_recent.add</text>
<text text-anchor="middle" x="59.38" y="-6.5" font-family="Helvetica,sans-Serif" font-size="10.00">_recent_form_features</text>
</a>
</g>
</g>
<!-- Node3&#45;&gt;Node4 -->
<g id="edge3_Node000003_Node000004" class="edge">
<title>Node3&#45;&gt;Node4</title>
<g id="a_edge3_Node000003_Node000004"><a xlink:title=" ">
<path fill="none" stroke="#63b8ff" d="M142.93,-16C135.02,-16 126.97,-16 119.14,-16"/>
<polygon fill="#63b8ff" stroke="#63b8ff" points="142.87,-19.5 152.87,-16 142.87,-12.5 142.87,-19.5"/>
</a>
</g>
</g>
</g>
</svg>
