<?xml version="1.0" encoding="UTF-8" standalone="no"?>
<!DOCTYPE svg PUBLIC "-//W3C//DTD SVG 1.1//EN"
 "http://www.w3.org/Graphics/SVG/1.1/DTD/svg11.dtd">
<!-- Generated by graphviz version 12.1.0 (20240811.2233)
 -->
<!-- Title: src.train_outcome.main Pages: 1 -->
<svg width="634pt" height="590pt"
 viewBox="0.00 0.00 633.75 590.00" xmlns="http://www.w3.org/2000/svg" xmlns:xlink="http://www.w3.org/1999/xlink">
<g id="graph0" class="graph" transform="scale(1 1) rotate(0) translate(4 586)">
<title>src.train_outcome.main</title>
<!-- Node1 -->
<g id="Node000001" class="node">
<title>Node1</title>
<g id="a_Node000001"><a xlink:title=" ">
<polygon fill="#999999" stroke="#666666" points="118,-376 0,-376 0,-356 118,-356 118,-376"/>
<text text-anchor="middle" x="59" y="-362.5" font-family="Helvetica,sans-Serif" font-size="10.00">src.train_outcome.main</text>
</a>
</g>
</g>
<!-- Node2 -->
<g id="Node000002" class="node">
<title>Node2</title>
<g id="a_Node000002"><a xlink:href="namespacesrc_1_1train__outcome.html#a288b41dc2c4ee4bcb5e0ec064e9f59e6" target="_top" xlink:title=" ">
<polygon fill="white" stroke="#666666" points="299,-445 154,-445 154,-425 299,-425 299,-445"/>
<text text-anchor="middle" x="226.5" y="-431.5" font-family="Helvetica,sans-Serif" font-size="10.00">src.train_outcome.parse_args</text>
</a>
</g>
</g>
<!-- Node1&#45;&gt;Node2 -->
<g id="edge1_Node000001_Node000002" class="edge">
<title>Node1&#45;&gt;Node2</title>
<g id="a_edge1_Node000001_Node000002"><a xlink:title=" ">
<path fill="none" stroke="#63b8ff" d="M76.76,-376.44C95.14,-387.51 125.78,-404.92 154,-416 158.9,-417.92 164.06,-419.72 169.27,-421.38"/>
<polygon fill="#63b8ff" stroke="#63b8ff" points="167.95,-424.63 178.54,-424.15 169.96,-417.93 167.95,-424.63"/>
</a>
</g>
</g>
<!-- Node3 -->
<g id="Node000003" class="node">
<title>Node3</title>
<g id="a_Node000003"><a xlink:href="namespacesrc_1_1train__outcome.html#a8ee476441df3ae5a433127bec2379a29" target="_top" xlink:title=" ">
<polygon fill="white" stroke="#666666" points="285.5,-407 167.5,-407 167.5,-375 285.5,-375 285.5,-407"/>
<text text-anchor="start" x="175.5" y="-393.5" font-family="Helvetica,sans-Serif" font-size="10.00">src.train_outcome.save</text>
<text text-anchor="middle" x="226.5" y="-381.5" font-family="Helvetica,sans-Serif" font-size="10.00">_metrics</text>
</a>
</g>
</g>
<!-- Node1&#45;&gt;Node3 -->
<g id="edge2_Node000001_Node000003" class="edge">
<title>Node1&#45;&gt;Node3</title>
<g id="a_edge2_Node000001_Node000003"><a xlink:title=" ">
<path fill="none" stroke="#63b8ff" d="M118.35,-374.81C130.46,-376.64 143.34,-378.59 155.81,-380.47"/>
<polygon fill="#63b8ff" stroke="#63b8ff" points="155.21,-383.92 165.62,-381.96 156.26,-377 155.21,-383.92"/>
</a>
</g>
</g>
<!-- Node4 -->
<g id="Node000004" class="node">
<title>Node4</title>
<g id="a_Node000004"><a xlink:href="namespacesrc_1_1train__outcome.html#a1e8a5bd1a3398ca9c6df22bd11e28542" target="_top" xlink:title=" ">
<polygon fill="white" stroke="#666666" points="285.5,-357 167.5,-357 167.5,-325 285.5,-325 285.5,-357"/>
<text text-anchor="start" x="175.5" y="-343.5" font-family="Helvetica,sans-Serif" font-size="10.00">src.train_outcome.save</text>
<text text-anchor="middle" x="226.5" y="-331.5" font-family="Helvetica,sans-Serif" font-size="10.00">_model</text>
</a>
</g>
</g>
<!-- Node1&#45;&gt;Node4 -->
<g id="edge3_Node000001_Node000004" class="edge">
<title>Node1&#45;&gt;Node4</title>
<g id="a_edge3_Node000001_Node000004"><a xlink:title=" ">
<path fill="none" stroke="#63b8ff" d="M118.35,-357.19C130.46,-355.36 143.34,-353.41 155.81,-351.53"/>
<polygon fill="#63b8ff" stroke="#63b8ff" points="156.26,-355 165.62,-350.04 155.21,-348.08 156.26,-355"/>
</a>
</g>
</g>
<!-- Node5 -->
<g id="Node000005" class="node">
<title>Node5</title>
<g id="a_Node000005"><a xlink:href="namespacesrc_1_1train__outcome.html#a0b59cfd4f81532d4f34e2c1421130d0e" target="_top" xlink:title=" ">
<polygon fill="white" stroke="#666666" points="284.38,-307 168.62,-307 168.62,-275 284.38,-275 284.38,-307"/>
<text text-anchor="start" x="176.62" y="-293.5" font-family="Helvetica,sans-Serif" font-size="10.00">src.train_outcome.train</text>
<text text-anchor="middle" x="226.5" y="-281.5" font-family="Helvetica,sans-Serif" font-size="10.00">_pipeline</text>
</a>
</g>
</g>
<!-- Node1&#45;&gt;Node5 -->
<g id="edge4_Node000001_Node000005" class="edge">
<title>Node1&#45;&gt;Node5</title>
<g id="a_edge4_Node000001_Node000005"><a xlink:title=" ">
<path fill="none" stroke="#63b8ff" d="M77.62,-355.58C96.21,-344.84 126.57,-328.01 154,-316 157.54,-314.45 161.21,-312.93 164.93,-311.44"/>
<polygon fill="#63b8ff" stroke="#63b8ff" points="166.01,-314.78 174.09,-307.93 163.5,-308.25 166.01,-314.78"/>
</a>
</g>
</g>
<!-- Node6 -->
<g id="Node000006" class="node">
<title>Node6</title>
<g id="a_Node000006"><a xlink:href="namespacesrc_1_1train__outcome.html#a8c1a5cbd39c177fd4fb282bcedf2f493" target="_top" xlink:title=" ">
<polygon fill="white" stroke="#666666" points="454.12,-582 350.38,-582 350.38,-550 454.12,-550 454.12,-582"/>
<text text-anchor="start" x="358.38" y="-568.5" font-family="Helvetica,sans-Serif" font-size="10.00">src.train_outcome.</text>
<text text-anchor="middle" x="402.25" y="-556.5" font-family="Helvetica,sans-Serif" font-size="10.00">_parse_xgb_params</text>
</a>
</g>
</g>
<!-- Node5&#45;&gt;Node6 -->
<g id="edge5_Node000005_Node000006" class="edge">
<title>Node5&#45;&gt;Node6</title>
<g id="a_edge5_Node000005_Node000006"><a xlink:title=" ">
<path fill="none" stroke="#63b8ff" d="M284.73,-304.3C290.12,-307.42 295.03,-311.26 299,-316 363.97,-393.68 270.98,-462.53 335,-541 336.8,-543.21 338.82,-545.22 341,-547.06"/>
<polygon fill="#63b8ff" stroke="#63b8ff" points="338.63,-549.68 348.86,-552.44 342.59,-543.9 338.63,-549.68"/>
</a>
</g>
</g>
<!-- Node7 -->
<g id="Node000007" class="node">
<title>Node7</title>
<g id="a_Node000007"><a xlink:href="namespacesrc_1_1train__outcome.html#aec669e404b4dd34ea2720dc7759a826c" target="_top" xlink:title=" ">
<polygon fill="white" stroke="#666666" points="460.88,-532 343.62,-532 343.62,-500 460.88,-500 460.88,-532"/>
<text text-anchor="start" x="351.62" y="-518.5" font-family="Helvetica,sans-Serif" font-size="10.00">src.train_outcome.build</text>
<text text-anchor="middle" x="402.25" y="-506.5" font-family="Helvetica,sans-Serif" font-size="10.00">_final_pipeline</text>
</a>
</g>
</g>
<!-- Node5&#45;&gt;Node7 -->
<g id="edge6_Node000005_Node000007" class="edge">
<title>Node5&#45;&gt;Node7</title>
<g id="a_edge6_Node000005_Node000007"><a xlink:title=" ">
<path fill="none" stroke="#63b8ff" d="M284.86,-304.68C290.16,-307.72 295.02,-311.45 299,-316 351.28,-375.77 283.46,-430.6 335,-491 335.35,-491.41 335.71,-491.81 336.07,-492.21"/>
<polygon fill="#63b8ff" stroke="#63b8ff" points="333.62,-494.72 343.48,-498.6 338.19,-489.42 333.62,-494.72"/>
</a>
</g>
</g>
<!-- Node8 -->
<g id="Node000008" class="node">
<title>Node8</title>
<g id="a_Node000008"><a xlink:href="namespacesrc_1_1train__outcome.html#a9c06b135f6dcb1453ecb3e05d15acfc2" target="_top" xlink:title=" ">
<polygon fill="white" stroke="#666666" points="460.88,-482 343.62,-482 343.62,-450 460.88,-450 460.88,-482"/>
<text text-anchor="start" x="351.62" y="-468.5" font-family="Helvetica,sans-Serif" font-size="10.00">src.train_outcome.build</text>
<text text-anchor="middle" x="402.25" y="-456.5" font-family="Helvetica,sans-Serif" font-size="10.00">_splits</text>
</a>
</g>
</g>
<!-- Node5&#45;&gt;Node8 -->
<g id="edge7_Node000005_Node000008" class="edge">
<title>Node5&#45;&gt;Node8</title>
<g id="a_edge7_Node000005_Node000008"><a xlink:title=" ">
<path fill="none" stroke="#63b8ff" d="M284.86,-305.19C290.09,-308.14 294.93,-311.7 299,-316 338.72,-358.01 295.8,-398.51 335,-441 335.47,-441.51 335.95,-442.01 336.44,-442.49"/>
<polygon fill="#63b8ff" stroke="#63b8ff" points="334.05,-445.06 344.03,-448.6 338.43,-439.61 334.05,-445.06"/>
</a>
</g>
</g>
<!-- Node10 -->
<g id="Node000010" class="node">
<title>Node10</title>
<g id="a_Node000010"><a xlink:href="namespacesrc_1_1train__outcome.html#abc015bcaaf9ea010c49144290054b7d8" target="_top" xlink:title=" ">
<polygon fill="white" stroke="#666666" points="469.12,-432 335.38,-432 335.38,-400 469.12,-400 469.12,-432"/>
<text text-anchor="start" x="343.38" y="-418.5" font-family="Helvetica,sans-Serif" font-size="10.00">src.train_outcome.calibrate</text>
<text text-anchor="middle" x="402.25" y="-406.5" font-family="Helvetica,sans-Serif" font-size="10.00">_model</text>
</a>
</g>
</g>
<!-- Node5&#45;&gt;Node10 -->
<g id="edge9_Node000005_Node000010" class="edge">
<title>Node5&#45;&gt;Node10</title>
<g id="a_edge9_Node000005_Node000010"><a xlink:title=" ">
<path fill="none" stroke="#63b8ff" d="M284.87,-306.29C289.97,-309.02 294.79,-312.23 299,-316 326.56,-340.65 307.75,-366.01 335,-391 335.77,-391.71 336.57,-392.4 337.38,-393.07"/>
<polygon fill="#63b8ff" stroke="#63b8ff" points="335.3,-395.88 345.52,-398.69 339.28,-390.12 335.3,-395.88"/>
</a>
</g>
</g>
<!-- Node11 -->
<g id="Node000011" class="node">
<title>Node11</title>
<g id="a_Node000011"><a xlink:href="namespacesrc_1_1train__outcome.html#ae5d5d6bc1164cee0f64fc354fb58998a" target="_top" xlink:title=" ">
<polygon fill="white" stroke="#666666" points="469.5,-382 335,-382 335,-350 469.5,-350 469.5,-382"/>
<text text-anchor="start" x="343" y="-368.5" font-family="Helvetica,sans-Serif" font-size="10.00">src.train_outcome.compute</text>
<text text-anchor="middle" x="402.25" y="-356.5" font-family="Helvetica,sans-Serif" font-size="10.00">_recency_weights</text>
</a>
</g>
</g>
<!-- Node5&#45;&gt;Node11 -->
<g id="edge10_Node000005_Node000011" class="edge">
<title>Node5&#45;&gt;Node11</title>
<g id="a_edge10_Node000005_Node000011"><a xlink:title=" ">
<path fill="none" stroke="#63b8ff" d="M279.74,-307.41C286.34,-310.02 292.91,-312.89 299,-316 316.35,-324.85 317.76,-331.94 335,-341 337.66,-342.4 340.42,-343.76 343.23,-345.08"/>
<polygon fill="#63b8ff" stroke="#63b8ff" points="341.63,-348.19 352.19,-349.03 344.45,-341.79 341.63,-348.19"/>
</a>
</g>
</g>
<!-- Node12 -->
<g id="Node000012" class="node">
<title>Node12</title>
<g id="a_Node000012"><a xlink:href="namespacesrc_1_1train__outcome.html#a66d1945138e0591d7860b2fc3f322d96" target="_top" xlink:title=" ">
<polygon fill="white" stroke="#666666" points="469.12,-332 335.38,-332 335.38,-300 469.12,-300 469.12,-332"/>
<text text-anchor="start" x="343.38" y="-318.5" font-family="Helvetica,sans-Serif" font-size="10.00">src.train_outcome.evaluate</text>
<text text-anchor="middle" x="402.25" y="-306.5" font-family="Helvetica,sans-Serif" font-size="10.00">_split</text>
</a>
</g>
</g>
<!-- Node5&#45;&gt;Node12 -->
<g id="edge11_Node000005_Node000012" class="edge">
<title>Node5&#45;&gt;Node12</title>
<g id="a_edge11_Node000005_Node000012"><a xlink:title=" ">
<path fill="none" stroke="#63b8ff" d="M284.87,-299.26C297.26,-301.04 310.55,-302.95 323.57,-304.82"/>
<polygon fill="#63b8ff" stroke="#63b8ff" points="323.01,-308.28 333.4,-306.24 324,-301.35 323.01,-308.28"/>
</a>
</g>
</g>
<!-- Node13 -->
<g id="Node000013" class="node">
<title>Node13</title>
<g id="a_Node000013"><a xlink:href="namespacesrc_1_1train__outcome.html#a80cf40519b43507179b144e3e2567e8a" target="_top" xlink:title=" ">
<polygon fill="white" stroke="#666666" points="457.5,-282 347,-282 347,-250 457.5,-250 457.5,-282"/>
<text text-anchor="start" x="355" y="-268.5" font-family="Helvetica,sans-Serif" font-size="10.00">src.train_outcome.get</text>
<text text-anchor="middle" x="402.25" y="-256.5" font-family="Helvetica,sans-Serif" font-size="10.00">_available_years</text>
</a>
</g>
</g>
<!-- Node5&#45;&gt;Node13 -->
<g id="edge12_Node000005_Node000013" class="edge">
<title>Node5&#45;&gt;Node13</title>
<g id="a_edge12_Node000005_Node000013"><a xlink:title=" ">
<path fill="none" stroke="#63b8ff" d="M284.87,-282.74C301.02,-280.42 318.7,-277.88 335.3,-275.49"/>
<polygon fill="#63b8ff" stroke="#63b8ff" points="335.69,-278.97 345.09,-274.08 334.7,-272.04 335.69,-278.97"/>
</a>
</g>
</g>
<!-- Node14 -->
<g id="Node000014" class="node">
<title>Node14</title>
<g id="a_Node000014"><a xlink:href="namespacesrc_1_1train__outcome.html#a3e219c70bae97f6e5d30c7b6cb272acb" target="_top" xlink:title=" ">
<polygon fill="white" stroke="#666666" points="457.5,-232 347,-232 347,-200 457.5,-200 457.5,-232"/>
<text text-anchor="start" x="355" y="-218.5" font-family="Helvetica,sans-Serif" font-size="10.00">src.train_outcome.get</text>
<text text-anchor="middle" x="402.25" y="-206.5" font-family="Helvetica,sans-Serif" font-size="10.00">_feature_columns</text>
</a>
</g>
</g>
<!-- Node5&#45;&gt;Node14 -->
<g id="edge13_Node000005_Node000014" class="edge">
<title>Node5&#45;&gt;Node14</title>
<g id="a_edge13_Node000005_Node000014"><a xlink:title=" ">
<path fill="none" stroke="#63b8ff" d="M261.1,-274.59C282.16,-264.5 309.95,-251.53 335,-241 338.4,-239.57 341.91,-238.13 345.46,-236.71"/>
<polygon fill="#63b8ff" stroke="#63b8ff" points="346.74,-239.97 354.76,-233.05 344.17,-233.45 346.74,-239.97"/>
</a>
</g>
</g>
<!-- Node15 -->
<g id="Node000015" class="node">
<title>Node15</title>
<g id="a_Node000015"><a xlink:href="namespacesrc_1_1train__outcome.html#adba76595cee632b889e09b9f1e07965f" target="_top" xlink:title=" ">
<polygon fill="white" stroke="#666666" points="457.12,-182 347.38,-182 347.38,-150 457.12,-150 457.12,-182"/>
<text text-anchor="start" x="355.38" y="-168.5" font-family="Helvetica,sans-Serif" font-size="10.00">src.train_outcome.init</text>
<text text-anchor="middle" x="402.25" y="-156.5" font-family="Helvetica,sans-Serif" font-size="10.00">_classifier</text>
</a>
</g>
</g>
<!-- Node5&#45;&gt;Node15 -->
<g id="edge14_Node000005_Node000015" class="edge">
<title>Node5&#45;&gt;Node15</title>
<g id="a_edge14_Node000005_Node000015"><a xlink:title=" ">
<path fill="none" stroke="#63b8ff" d="M241.26,-274.73C260.36,-253.04 296.87,-214.64 335,-191 337,-189.76 339.07,-188.57 341.19,-187.42"/>
<polygon fill="#63b8ff" stroke="#63b8ff" points="342.62,-190.61 350.04,-183.05 339.52,-184.34 342.62,-190.61"/>
</a>
</g>
</g>
<!-- Node16 -->
<g id="Node000016" class="node">
<title>Node16</title>
<g id="a_Node000016"><a xlink:href="namespacesrc_1_1train__outcome.html#a14c3578c29faa5643dd9ffbc95bf31b4" target="_top" xlink:title=" ">
<polygon fill="white" stroke="#666666" points="459.75,-132 344.75,-132 344.75,-100 459.75,-100 459.75,-132"/>
<text text-anchor="start" x="352.75" y="-118.5" font-family="Helvetica,sans-Serif" font-size="10.00">src.train_outcome.load</text>
<text text-anchor="middle" x="402.25" y="-106.5" font-family="Helvetica,sans-Serif" font-size="10.00">_dataset</text>
</a>
</g>
</g>
<!-- Node5&#45;&gt;Node16 -->
<g id="edge15_Node000005_Node000016" class="edge">
<title>Node5&#45;&gt;Node16</title>
<g id="a_edge15_Node000005_Node000016"><a xlink:title=" ">
<path fill="none" stroke="#63b8ff" d="M235.15,-274.59C250.14,-244.11 286.21,-178.47 335,-141 336.31,-139.99 337.67,-139.02 339.06,-138.09"/>
<polygon fill="#63b8ff" stroke="#63b8ff" points="340.53,-141.28 347.38,-133.2 336.99,-135.25 340.53,-141.28"/>
</a>
</g>
</g>
<!-- Node17 -->
<g id="Node000017" class="node">
<title>Node17</title>
<g id="a_Node000017"><a xlink:href="namespacesrc_1_1train__outcome.html#a743d2ee9070ecdff3d48809af82f641c" target="_top" xlink:title=" ">
<polygon fill="white" stroke="#666666" points="466.5,-82 338,-82 338,-50 466.5,-50 466.5,-82"/>
<text text-anchor="start" x="346" y="-68.5" font-family="Helvetica,sans-Serif" font-size="10.00">src.train_outcome.resolve</text>
<text text-anchor="middle" x="402.25" y="-56.5" font-family="Helvetica,sans-Serif" font-size="10.00">_split_config</text>
</a>
</g>
</g>
<!-- Node5&#45;&gt;Node17 -->
<g id="edge16_Node000005_Node000017" class="edge">
<title>Node5&#45;&gt;Node17</title>
<g id="a_edge16_Node000005_Node000017"><a xlink:title=" ">
<path fill="none" stroke="#63b8ff" d="M232,-274.5C243.12,-236.72 275.39,-143.2 335,-91 335.92,-90.19 336.88,-89.41 337.86,-88.64"/>
<polygon fill="#63b8ff" stroke="#63b8ff" points="339.57,-91.71 345.99,-83.28 335.71,-85.87 339.57,-91.71"/>
</a>
</g>
</g>
<!-- Node18 -->
<g id="Node000018" class="node">
<title>Node18</title>
<g id="a_Node000018"><a xlink:href="namespacesrc_1_1train__outcome.html#adbdc1ea08c43efea8948dd20ba58f978" target="_top" xlink:title=" ">
<polygon fill="white" stroke="#666666" points="460.12,-32 344.38,-32 344.38,0 460.12,0 460.12,-32"/>
<text text-anchor="start" x="352.38" y="-18.5" font-family="Helvetica,sans-Serif" font-size="10.00">src.train_outcome.train</text>
<text text-anchor="middle" x="402.25" y="-6.5" font-family="Helvetica,sans-Serif" font-size="10.00">_classifier</text>
</a>
</g>
</g>
<!-- Node5&#45;&gt;Node18 -->
<g id="edge17_Node000005_Node000018" class="edge">
<title>Node5&#45;&gt;Node18</title>
<g id="a_edge17_Node000005_Node000018"><a xlink:title=" ">
<path fill="none" stroke="#63b8ff" d="M229.98,-274.77C237.52,-230.91 264.13,-108.73 335,-41 335.74,-40.29 336.5,-39.61 337.28,-38.94"/>
<polygon fill="#63b8ff" stroke="#63b8ff" points="338.97,-42.04 345.06,-33.37 334.89,-36.34 338.97,-42.04"/>
</a>
</g>
</g>
<!-- Node9 -->
<g id="Node000009" class="node">
<title>Node9</title>
<g id="a_Node000009"><a xlink:href="namespacesrc_1_1train__outcome.html#a0484954fad66c96a7dc3d70ab5d6c66f" target="_top" xlink:title=" ">
<polygon fill="white" stroke="#666666" points="625.75,-482 505.5,-482 505.5,-450 625.75,-450 625.75,-482"/>
<text text-anchor="start" x="513.5" y="-468.5" font-family="Helvetica,sans-Serif" font-size="10.00">src.train_outcome.</text>
<text text-anchor="middle" x="565.62" y="-456.5" font-family="Helvetica,sans-Serif" font-size="10.00">_build_row_split_masks</text>
</a>
</g>
</g>
<!-- Node8&#45;&gt;Node9 -->
<g id="edge8_Node000008_Node000009" class="edge">
<title>Node8&#45;&gt;Node9</title>
<g id="a_edge8_Node000008_Node000009"><a xlink:title=" ">
<path fill="none" stroke="#63b8ff" d="M461.05,-466C471.66,-466 482.84,-466 493.78,-466"/>
<polygon fill="#63b8ff" stroke="#63b8ff" points="493.54,-469.5 503.54,-466 493.54,-462.5 493.54,-469.5"/>
</a>
</g>
</g>
</g>
</svg>
