<?xml version="1.0" encoding="UTF-8" standalone="no"?>
<!DOCTYPE svg PUBLIC "-//W3C//DTD SVG 1.1//EN"
 "http://www.w3.org/Graphics/SVG/1.1/DTD/svg11.dtd">
<!-- Generated by graphviz version 12.1.0 (20240811.2233)
 -->
<!-- Title: src.build_dataset._get_ranking_cache Pages: 1 -->
<svg width="453pt" height="40pt"
 viewBox="0.00 0.00 452.75 40.00" xmlns="http://www.w3.org/2000/svg" xmlns:xlink="http://www.w3.org/1999/xlink">
<g id="graph0" class="graph" transform="scale(1 1) rotate(0) translate(4 36)">
<title>src.build_dataset._get_ranking_cache</title>
<!-- Node1 -->
<g id="Node000001" class="node">
<title>Node1</title>
<g id="a_Node000001"><a xlink:title=" ">
<polygon fill="#999999" stroke="#666666" points="444.75,-32 341.75,-32 341.75,0 444.75,0 444.75,-32"/>
<text text-anchor="start" x="349.75" y="-18.5" font-family="Helvetica,sans-Serif" font-size="10.00">src.build_dataset.</text>
<text text-anchor="middle" x="393.25" y="-6.5" font-family="Helvetica,sans-Serif" font-size="10.00">_get_ranking_cache</text>
</a>
</g>
</g>
<!-- Node2 -->
<g id="Node000002" class="node">
<title>Node2</title>
<g id="a_Node000002"><a xlink:href="namespacesrc_1_1build__dataset.html#a152e670d9eb1b48ddb7160e48d90ad6e" target="_top" xlink:title=" ">
<polygon fill="white" stroke="#666666" points="305.75,-32 199,-32 199,0 305.75,0 305.75,-32"/>
<text text-anchor="start" x="207" y="-18.5" font-family="Helvetica,sans-Serif" font-size="10.00">src.build_dataset.get</text>
<text text-anchor="middle" x="252.38" y="-6.5" font-family="Helvetica,sans-Serif" font-size="10.00">_rank_on_or_before</text>
</a>
</g>
</g>
<!-- Node1&#45;&gt;Node2 -->
<g id="edge1_Node000001_Node000002" class="edge">
<title>Node1&#45;&gt;Node2</title>
<g id="a_edge1_Node000001_Node000002"><a xlink:title=" ">
<path fill="none" stroke="#63b8ff" d="M329.86,-16C321.95,-16 313.9,-16 306.16,-16"/>
<polygon fill="#63b8ff" stroke="#63b8ff" points="329.81,-19.5 339.81,-16 329.81,-12.5 329.81,-19.5"/>
</a>
</g>
</g>
<!-- Node3 -->
<g id="Node000003" class="node">
<title>Node3</title>
<g id="a_Node000003"><a xlink:href="namespacesrc_1_1build__dataset.html#aaca54296e0b33e26a3209f4df0b31b9c" target="_top" xlink:title=" ">
<polygon fill="white" stroke="#666666" points="163,-26 0,-26 0,-6 163,-6 163,-26"/>
<text text-anchor="middle" x="81.5" y="-12.5" font-family="Helvetica,sans-Serif" font-size="10.00">src.build_dataset.canonicalize_ab</text>
</a>
</g>
</g>
<!-- Node2&#45;&gt;Node3 -->
<g id="edge2_Node000002_Node000003" class="edge">
<title>Node2&#45;&gt;Node3</title>
<g id="a_edge2_Node000002_Node000003"><a xlink:title=" ">
<path fill="none" stroke="#63b8ff" d="M187.56,-16C179.7,-16 171.58,-16 163.5,-16"/>
<polygon fill="#63b8ff" stroke="#63b8ff" points="187.35,-19.5 197.35,-16 187.35,-12.5 187.35,-19.5"/>
</a>
</g>
</g>
</g>
</svg>
