<?xml version="1.0" encoding="UTF-8" standalone="no"?>
<!DOCTYPE svg PUBLIC "-//W3C//DTD SVG 1.1//EN"
 "http://www.w3.org/Graphics/SVG/1.1/DTD/svg11.dtd">
<!-- Generated by graphviz version 12.1.0 (20240811.2233)
 -->
<!-- Title: src.tiebreaker_cli.cmd_rank Pages: 1 -->
<svg width="604pt" height="90pt"
 viewBox="0.00 0.00 603.75 90.00" xmlns="http://www.w3.org/2000/svg" xmlns:xlink="http://www.w3.org/1999/xlink">
<g id="graph0" class="graph" transform="scale(1 1) rotate(0) translate(4 86)">
<title>src.tiebreaker_cli.cmd_rank</title>
<!-- Node1 -->
<g id="Node000001" class="node">
<title>Node1</title>
<g id="a_Node000001"><a xlink:title=" ">
<polygon fill="#999999" stroke="#666666" points="136,-51 0,-51 0,-31 136,-31 136,-51"/>
<text text-anchor="middle" x="68" y="-37.5" font-family="Helvetica,sans-Serif" font-size="10.00">src.tiebreaker_cli.cmd_rank</text>
</a>
</g>
</g>
<!-- Node2 -->
<g id="Node000002" class="node">
<title>Node2</title>
<g id="a_Node000002"><a xlink:href="namespacesrc_1_1tiebreaker__cli.html#a60a79fcc68d102bfe61d8c7b58bf70b1" target="_top" xlink:title=" ">
<polygon fill="white" stroke="#666666" points="290.38,-82 178.38,-82 178.38,-50 290.38,-50 290.38,-82"/>
<text text-anchor="start" x="186.38" y="-68.5" font-family="Helvetica,sans-Serif" font-size="10.00">src.tiebreaker_cli.date</text>
<text text-anchor="middle" x="234.38" y="-56.5" font-family="Helvetica,sans-Serif" font-size="10.00">_parse_or_none</text>
</a>
</g>
</g>
<!-- Node1&#45;&gt;Node2 -->
<g id="edge1_Node000001_Node000002" class="edge">
<title>Node1&#45;&gt;Node2</title>
<g id="a_edge1_Node000001_Node000002"><a xlink:title=" ">
<path fill="none" stroke="#63b8ff" d="M136.33,-51.24C146.38,-52.77 156.74,-54.34 166.77,-55.87"/>
<polygon fill="#63b8ff" stroke="#63b8ff" points="166.02,-59.3 176.43,-57.34 167.07,-52.38 166.02,-59.3"/>
</a>
</g>
</g>
<!-- Node3 -->
<g id="Node000003" class="node">
<title>Node3</title>
<g id="a_Node000003"><a xlink:href="namespacesrc_1_1tiebreaker__cli.html#a9e39c2d716fb4e33d95db178a1ee1d67" target="_top" xlink:title=" ">
<polygon fill="white" stroke="#666666" points="296.75,-32 172,-32 172,0 296.75,0 296.75,-32"/>
<text text-anchor="start" x="180" y="-18.5" font-family="Helvetica,sans-Serif" font-size="10.00">src.tiebreaker_cli.resolve</text>
<text text-anchor="middle" x="234.38" y="-6.5" font-family="Helvetica,sans-Serif" font-size="10.00">_player_id</text>
</a>
</g>
</g>
<!-- Node1&#45;&gt;Node3 -->
<g id="edge2_Node000001_Node000003" class="edge">
<title>Node1&#45;&gt;Node3</title>
<g id="a_edge2_Node000001_Node000003"><a xlink:title=" ">
<path fill="none" stroke="#63b8ff" d="M136.33,-30.76C144.29,-29.55 152.43,-28.31 160.46,-27.09"/>
<polygon fill="#63b8ff" stroke="#63b8ff" points="160.84,-30.57 170.2,-25.61 159.79,-23.65 160.84,-30.57"/>
</a>
</g>
</g>
<!-- Node4 -->
<g id="Node000004" class="node">
<title>Node4</title>
<g id="a_Node000004"><a xlink:href="namespacesrc_1_1tiebreaker__cli.html#a95f75c57b6434303754582d2cbd2e5eb" target="_top" xlink:title=" ">
<polygon fill="white" stroke="#666666" points="444.75,-32 332.75,-32 332.75,0 444.75,0 444.75,-32"/>
<text text-anchor="start" x="340.75" y="-18.5" font-family="Helvetica,sans-Serif" font-size="10.00">src.tiebreaker_cli.best</text>
<text text-anchor="middle" x="388.75" y="-6.5" font-family="Helvetica,sans-Serif" font-size="10.00">_name_match</text>
</a>
</g>
</g>
<!-- Node3&#45;&gt;Node4 -->
<g id="edge3_Node000003_Node000004" class="edge">
<title>Node3&#45;&gt;Node4</title>
<g id="a_edge3_Node000003_Node000004"><a xlink:title=" ">
<path fill="none" stroke="#63b8ff" d="M296.91,-16C304.88,-16 313.08,-16 321.13,-16"/>
<polygon fill="#63b8ff" stroke="#63b8ff" points="320.86,-19.5 330.86,-16 320.86,-12.5 320.86,-19.5"/>
</a>
</g>
</g>
<!-- Node5 -->
<g id="Node000005" class="node">
<title>Node5</title>
<g id="a_Node000005"><a xlink:href="namespacesrc_1_1tiebreaker__cli.html#ae1dde96bb989e0bcc3883f4e60283e45" target="_top" xlink:title=" ">
<polygon fill="white" stroke="#666666" points="595.75,-26 480.75,-26 480.75,-6 595.75,-6 595.75,-26"/>
<text text-anchor="middle" x="538.25" y="-12.5" font-family="Helvetica,sans-Serif" font-size="10.00">src.tiebreaker_cli.norm</text>
</a>
</g>
</g>
<!-- Node4&#45;&gt;Node5 -->
<g id="edge4_Node000004_Node000005" class="edge">
<title>Node4&#45;&gt;Node5</title>
<g id="a_edge4_Node000004_Node000005"><a xlink:title=" ">
<path fill="none" stroke="#63b8ff" d="M445.09,-16C452.98,-16 461.17,-16 469.27,-16"/>
<polygon fill="#63b8ff" stroke="#63b8ff" points="469.1,-19.5 479.1,-16 469.1,-12.5 469.1,-19.5"/>
</a>
</g>
</g>
</g>
</svg>
