<?xml version="1.0" encoding="UTF-8" standalone="no"?>
<!DOCTYPE svg PUBLIC "-//W3C//DTD SVG 1.1//EN"
 "http://www.w3.org/Graphics/SVG/1.1/DTD/svg11.dtd">
<!-- Generated by graphviz version 12.1.0 (20240811.2233)
 -->
<!-- Title: src.tiebreaker_cli.cmd_match Pages: 1 -->
<svg width="580pt" height="40pt"
 viewBox="0.00 0.00 579.75 40.00" xmlns="http://www.w3.org/2000/svg" xmlns:xlink="http://www.w3.org/1999/xlink">
<g id="graph0" class="graph" transform="scale(1 1) rotate(0) translate(4 36)">
<title>src.tiebreaker_cli.cmd_match</title>
<!-- Node1 -->
<g id="Node000001" class="node">
<title>Node1</title>
<g id="a_Node000001"><a xlink:title=" ">
<polygon fill="#999999" stroke="#666666" points="112,-32 0,-32 0,0 112,0 112,-32"/>
<text text-anchor="start" x="8" y="-18.5" font-family="Helvetica,sans-Serif" font-size="10.00">src.tiebreaker_cli.cmd</text>
<text text-anchor="middle" x="56" y="-6.5" font-family="Helvetica,sans-Serif" font-size="10.00">_match</text>
</a>
</g>
</g>
<!-- Node2 -->
<g id="Node000002" class="node">
<title>Node2</title>
<g id="a_Node000002"><a xlink:href="namespacesrc_1_1tiebreaker__cli.html#a9e39c2d716fb4e33d95db178a1ee1d67" target="_top" xlink:title=" ">
<polygon fill="white" stroke="#666666" points="272.75,-32 148,-32 148,0 272.75,0 272.75,-32"/>
<text text-anchor="start" x="156" y="-18.5" font-family="Helvetica,sans-Serif" font-size="10.00">src.tiebreaker_cli.resolve</text>
<text text-anchor="middle" x="210.38" y="-6.5" font-family="Helvetica,sans-Serif" font-size="10.00">_player_id</text>
</a>
</g>
</g>
<!-- Node1&#45;&gt;Node2 -->
<g id="edge1_Node000001_Node000002" class="edge">
<title>Node1&#45;&gt;Node2</title>
<g id="a_edge1_Node000001_Node000002"><a xlink:title=" ">
<path fill="none" stroke="#63b8ff" d="M112.44,-16C120.19,-16 128.25,-16 136.27,-16"/>
<polygon fill="#63b8ff" stroke="#63b8ff" points="136.02,-19.5 146.02,-16 136.02,-12.5 136.02,-19.5"/>
</a>
</g>
</g>
<!-- Node3 -->
<g id="Node000003" class="node">
<title>Node3</title>
<g id="a_Node000003"><a xlink:href="namespacesrc_1_1tiebreaker__cli.html#a95f75c57b6434303754582d2cbd2e5eb" target="_top" xlink:title=" ">
<polygon fill="white" stroke="#666666" points="420.75,-32 308.75,-32 308.75,0 420.75,0 420.75,-32"/>
<text text-anchor="start" x="316.75" y="-18.5" font-family="Helvetica,sans-Serif" font-size="10.00">src.tiebreaker_cli.best</text>
<text text-anchor="middle" x="364.75" y="-6.5" font-family="Helvetica,sans-Serif" font-size="10.00">_name_match</text>
</a>
</g>
</g>
<!-- Node2&#45;&gt;Node3 -->
<g id="edge2_Node000002_Node000003" class="edge">
<title>Node2&#45;&gt;Node3</title>
<g id="a_edge2_Node000002_Node000003"><a xlink:title=" ">
<path fill="none" stroke="#63b8ff" d="M272.91,-16C280.88,-16 289.08,-16 297.13,-16"/>
<polygon fill="#63b8ff" stroke="#63b8ff" points="296.86,-19.5 306.86,-16 296.86,-12.5 296.86,-19.5"/>
</a>
</g>
</g>
<!-- Node4 -->
<g id="Node000004" class="node">
<title>Node4</title>
<g id="a_Node000004"><a xlink:href="namespacesrc_1_1tiebreaker__cli.html#ae1dde96bb989e0bcc3883f4e60283e45" target="_top" xlink:title=" ">
<polygon fill="white" stroke="#666666" points="571.75,-26 456.75,-26 456.75,-6 571.75,-6 571.75,-26"/>
<text text-anchor="middle" x="514.25" y="-12.5" font-family="Helvetica,sans-Serif" font-size="10.00">src.tiebreaker_cli.norm</text>
</a>
</g>
</g>
<!-- Node3&#45;&gt;Node4 -->
<g id="edge3_Node000003_Node000004" class="edge">
<title>Node3&#45;&gt;Node4</title>
<g id="a_edge3_Node000003_Node000004"><a xlink:title=" ">
<path fill="none" stroke="#63b8ff" d="M421.09,-16C428.98,-16 437.17,-16 445.27,-16"/>
<polygon fill="#63b8ff" stroke="#63b8ff" points="445.1,-19.5 455.1,-16 445.1,-12.5 445.1,-19.5"/>
</a>
</g>
</g>
</g>
</svg>
